<svg version="1.2" preserveAspectRatio="xMidYMid meet" viewBox="168.00000000000003 56.99999924 268.2 38.399999488" zoomAndPan="magnify" xmlns:xlink="http://www.w3.org/1999/xlink" xmlns="http://www.w3.org/2000/svg" style="max-height: 500px" width="268.2" height="38.399999488"><defs/><g id="755e64daa8"><g style="fill:#4299e1;fill-opacity:1;"><g transform="translate(167.027343, 86.999997)"><path d="M 20.65625 -27.8125 C 23.113281 -27.757812 25.3125 -27.1875 27.25 -26.09375 C 29.195312 -25 30.722656 -23.457031 31.828125 -21.46875 C 32.941406 -19.488281 33.457031 -17.101562 33.375 -14.3125 C 33.320312 -11.488281 32.816406 -8.957031 31.859375 -6.71875 C 30.898438 -4.476562 29.585938 -2.722656 27.921875 -1.453125 C 26.253906 -0.191406 24.316406 0.410156 22.109375 0.359375 C 20.484375 0.304688 19.050781 0 17.8125 -0.5625 C 16.570312 -1.125 15.523438 -1.734375 14.671875 -2.390625 C 13.203125 -0.554688 11.242188 0.359375 8.796875 0.359375 C 6.796875 0.390625 5.269531 -0.015625 4.21875 -0.859375 C 3.164062 -1.703125 2.691406 -2.773438 2.796875 -4.078125 C 2.898438 -5.222656 3.296875 -6.128906 3.984375 -6.796875 C 4.679688 -7.460938 5.535156 -7.894531 6.546875 -8.09375 C 7.566406 -8.289062 8.628906 -8.273438 9.734375 -8.046875 C 10.835938 -7.828125 11.867188 -7.410156 12.828125 -6.796875 C 13.304688 -8.078125 13.765625 -9.484375 14.203125 -11.015625 C 14.648438 -12.546875 15.101562 -14.066406 15.5625 -15.578125 C 16.03125 -17.097656 16.5625 -18.472656 17.15625 -19.703125 C 17.757812 -20.929688 18.476562 -21.890625 19.3125 -22.578125 C 19.65625 -22.847656 20.097656 -22.957031 20.640625 -22.90625 C 21.191406 -22.851562 21.664062 -22.71875 22.0625 -22.5 C 22.457031 -22.289062 22.617188 -22.050781 22.546875 -21.78125 C 21.742188 -20.789062 21.046875 -19.554688 20.453125 -18.078125 C 19.867188 -16.609375 19.335938 -15.046875 18.859375 -13.390625 C 18.378906 -11.734375 17.910156 -10.148438 17.453125 -8.640625 C 17.003906 -7.140625 16.503906 -5.875 15.953125 -4.84375 C 16.828125 -4.113281 17.867188 -3.535156 19.078125 -3.109375 C 20.296875 -2.691406 21.394531 -2.535156 22.375 -2.640625 C 23.789062 -2.742188 24.984375 -3.34375 25.953125 -4.4375 C 26.929688 -5.53125 27.679688 -6.941406 28.203125 -8.671875 C 28.722656 -10.398438 28.992188 -12.289062 29.015625 -14.34375 C 29.046875 -16.238281 28.78125 -17.984375 28.21875 -19.578125 C 27.65625 -21.179688 26.703125 -22.46875 25.359375 -23.4375 C 24.015625 -24.414062 22.179688 -24.90625 19.859375 -24.90625 C 18.554688 -24.90625 17.320312 -24.644531 16.15625 -24.125 C 15 -23.601562 14.035156 -22.894531 13.265625 -22 C 12.492188 -21.101562 12.023438 -20.109375 11.859375 -19.015625 C 11.703125 -17.929688 11.957031 -16.828125 12.625 -15.703125 C 12.707031 -15.460938 12.601562 -15.15625 12.3125 -14.78125 C 12.019531 -14.414062 11.640625 -14.128906 11.171875 -13.921875 C 10.703125 -13.722656 10.242188 -13.734375 9.796875 -13.953125 C 8.785156 -14.742188 8.113281 -15.695312 7.78125 -16.8125 C 7.445312 -17.9375 7.425781 -19.097656 7.71875 -20.296875 C 8.007812 -21.503906 8.566406 -22.597656 9.390625 -23.578125 C 10.640625 -24.992188 12.285156 -26.066406 14.328125 -26.796875 C 16.367188 -27.523438 18.476562 -27.863281 20.65625 -27.8125 Z M 8.875 -5.75 C 8.15625 -5.78125 7.609375 -5.628906 7.234375 -5.296875 C 6.859375 -4.960938 6.648438 -4.566406 6.609375 -4.109375 C 6.578125 -3.660156 6.71875 -3.257812 7.03125 -2.90625 C 7.351562 -2.5625 7.847656 -2.390625 8.515625 -2.390625 C 9.203125 -2.367188 9.828125 -2.5625 10.390625 -2.96875 C 10.953125 -3.382812 11.445312 -3.914062 11.875 -4.5625 C 11.445312 -4.851562 10.972656 -5.117188 10.453125 -5.359375 C 9.929688 -5.597656 9.40625 -5.726562 8.875 -5.75 Z M 8.875 -5.75" style="stroke:none"/></g></g><g style="fill:#4299e1;fill-opacity:1;"><g transform="translate(202.682908, 86.999997)"><path d="M 9.515625 -16.90625 C 10.390625 -17.0625 11.363281 -17.097656 12.4375 -17.015625 C 13.519531 -16.941406 14.570312 -16.71875 15.59375 -16.34375 C 16.625 -15.96875 17.515625 -15.394531 18.265625 -14.625 C 18.398438 -14.414062 18.347656 -14.117188 18.109375 -13.734375 C 17.867188 -13.347656 17.570312 -13.015625 17.21875 -12.734375 C 16.875 -12.453125 16.597656 -12.363281 16.390625 -12.46875 C 15.554688 -13.132812 14.628906 -13.609375 13.609375 -13.890625 C 12.585938 -14.171875 11.609375 -14.242188 10.671875 -14.109375 C 9.523438 -13.953125 8.429688 -13.410156 7.390625 -12.484375 C 6.347656 -11.566406 5.523438 -10.441406 4.921875 -9.109375 C 4.304688 -7.804688 3.941406 -6.554688 3.828125 -5.359375 C 3.722656 -4.160156 3.898438 -3.332031 4.359375 -2.875 C 4.835938 -2.394531 5.421875 -2.359375 6.109375 -2.765625 C 6.804688 -3.179688 7.515625 -3.882812 8.234375 -4.875 C 8.953125 -5.863281 9.617188 -7.003906 10.234375 -8.296875 C 10.847656 -9.585938 11.328125 -10.875 11.671875 -12.15625 C 11.859375 -12.394531 12.148438 -12.523438 12.546875 -12.546875 C 12.953125 -12.578125 13.375 -12.535156 13.8125 -12.421875 C 14.25 -12.316406 14.632812 -12.171875 14.96875 -11.984375 C 15.300781 -11.796875 15.484375 -11.597656 15.515625 -11.390625 C 15.296875 -10.640625 15.03125 -9.71875 14.71875 -8.625 C 14.414062 -7.539062 14.171875 -6.503906 13.984375 -5.515625 C 13.554688 -3.566406 13.796875 -2.59375 14.703125 -2.59375 C 15.210938 -2.625 15.8125 -2.910156 16.5 -3.453125 C 17.195312 -4.003906 17.890625 -4.75 18.578125 -5.6875 C 19.273438 -6.632812 19.863281 -7.679688 20.34375 -8.828125 C 20.425781 -8.992188 20.59375 -9.035156 20.84375 -8.953125 C 21.09375 -8.867188 21.320312 -8.734375 21.53125 -8.546875 C 21.75 -8.367188 21.820312 -8.195312 21.75 -8.03125 C 21.050781 -6.59375 20.242188 -5.25 19.328125 -4 C 18.410156 -2.75 17.40625 -1.742188 16.3125 -0.984375 C 15.21875 -0.222656 14.046875 0.15625 12.796875 0.15625 C 11.828125 0.15625 11.101562 -0.273438 10.625 -1.140625 C 10.144531 -2.003906 10.023438 -3.171875 10.265625 -4.640625 C 9.816406 -3.835938 9.296875 -3.054688 8.703125 -2.296875 C 8.117188 -1.535156 7.441406 -0.910156 6.671875 -0.421875 C 5.898438 0.0664062 4.96875 0.328125 3.875 0.359375 C 2.914062 0.359375 2.054688 0.125 1.296875 -0.34375 C 0.535156 -0.8125 -0.0195312 -1.53125 -0.375 -2.5 C -0.738281 -3.46875 -0.800781 -4.695312 -0.5625 -6.1875 C -0.269531 -7.976562 0.382812 -9.640625 1.40625 -11.171875 C 2.4375 -12.703125 3.671875 -13.976562 5.109375 -15 C 6.554688 -16.03125 8.023438 -16.664062 9.515625 -16.90625 Z M 9.515625 -16.90625" style="stroke:none"/></g></g><g style="fill:#4299e1;fill-opacity:1;"><g transform="translate(222.789123, 86.999997)"><path d="M 12.4375 -17.03125 C 13.945312 -17 14.921875 -16.460938 15.359375 -15.421875 C 15.804688 -14.390625 15.84375 -13.0625 15.46875 -11.4375 C 15.25 -10.53125 14.957031 -9.539062 14.59375 -8.46875 C 14.238281 -7.40625 13.957031 -6.394531 13.75 -5.4375 C 13.59375 -4.6875 13.503906 -4 13.484375 -3.375 C 13.472656 -2.75 13.722656 -2.4375 14.234375 -2.4375 C 14.785156 -2.4375 15.390625 -2.726562 16.046875 -3.3125 C 16.703125 -3.90625 17.351562 -4.6875 18 -5.65625 C 18.65625 -6.625 19.222656 -7.679688 19.703125 -8.828125 C 19.785156 -8.992188 19.953125 -9.035156 20.203125 -8.953125 C 20.453125 -8.867188 20.679688 -8.734375 20.890625 -8.546875 C 21.109375 -8.367188 21.179688 -8.195312 21.109375 -8.03125 C 20.703125 -7.15625 20.210938 -6.238281 19.640625 -5.28125 C 19.066406 -4.320312 18.421875 -3.414062 17.703125 -2.5625 C 16.984375 -1.707031 16.195312 -1.003906 15.34375 -0.453125 C 14.488281 0.0859375 13.582031 0.359375 12.625 0.359375 C 11.113281 0.390625 10.097656 0.015625 9.578125 -0.765625 C 9.054688 -1.554688 8.914062 -2.609375 9.15625 -3.921875 C 9.207031 -4.265625 9.3125 -4.753906 9.46875 -5.390625 C 9.632812 -6.035156 9.800781 -6.738281 9.96875 -7.5 C 10.144531 -8.257812 10.316406 -8.976562 10.484375 -9.65625 C 10.660156 -10.332031 10.789062 -10.867188 10.875 -11.265625 C 11.007812 -11.878906 11.066406 -12.453125 11.046875 -12.984375 C 11.035156 -13.523438 10.679688 -13.78125 9.984375 -13.75 C 9.535156 -13.75 9.007812 -13.554688 8.40625 -13.171875 C 7.8125 -12.785156 7.21875 -12.296875 6.625 -11.703125 C 6.039062 -11.117188 5.5 -10.492188 5 -9.828125 C 4.625 -8.578125 4.304688 -7.472656 4.046875 -6.515625 C 3.796875 -5.554688 3.5625 -4.601562 3.34375 -3.65625 C 3.132812 -2.707031 2.882812 -1.632812 2.59375 -0.4375 C 2.488281 -0.226562 2.203125 -0.0664062 1.734375 0.046875 C 1.273438 0.171875 0.769531 0.226562 0.21875 0.21875 C -0.320312 0.207031 -0.800781 0.125 -1.21875 -0.03125 C -1.632812 -0.195312 -1.851562 -0.441406 -1.875 -0.765625 C -1.238281 -3.421875 -0.578125 -5.972656 0.109375 -8.421875 C 0.804688 -10.878906 1.554688 -13.5625 2.359375 -16.46875 C 2.515625 -16.675781 2.800781 -16.828125 3.21875 -16.921875 C 3.632812 -17.015625 4.070312 -17.035156 4.53125 -16.984375 C 5 -16.929688 5.421875 -16.816406 5.796875 -16.640625 C 6.171875 -16.472656 6.410156 -16.226562 6.515625 -15.90625 C 6.328125 -15.269531 6.179688 -14.738281 6.078125 -14.3125 C 5.972656 -13.882812 5.828125 -13.378906 5.640625 -12.796875 C 6.117188 -13.347656 6.71875 -13.957031 7.4375 -14.625 C 8.15625 -15.289062 8.945312 -15.863281 9.8125 -16.34375 C 10.675781 -16.820312 11.550781 -17.050781 12.4375 -17.03125 Z M 12.4375 -17.03125" style="stroke:none"/></g></g><g style="fill:#4299e1;fill-opacity:1;"><g transform="translate(242.215811, 86.999997)"><path d="M 5.5625 -19.34375 C 4.894531 -19.34375 4.351562 -19.578125 3.9375 -20.046875 C 3.519531 -20.515625 3.367188 -21.09375 3.484375 -21.78125 C 3.609375 -22.5 3.925781 -23.082031 4.4375 -23.53125 C 4.945312 -23.988281 5.570312 -24.207031 6.3125 -24.1875 C 7.03125 -24.1875 7.585938 -23.957031 7.984375 -23.5 C 8.390625 -23.050781 8.539062 -22.476562 8.4375 -21.78125 C 8.351562 -21.0625 8.050781 -20.472656 7.53125 -20.015625 C 7.007812 -19.566406 6.351562 -19.34375 5.5625 -19.34375 Z M 2.515625 0.359375 C 0.867188 0.390625 -0.175781 -0.046875 -0.625 -0.953125 C -1.082031 -1.859375 -1.140625 -3.085938 -0.796875 -4.640625 C -0.347656 -6.523438 0.128906 -8.359375 0.640625 -10.140625 C 1.148438 -11.929688 1.75 -14.039062 2.4375 -16.46875 C 2.59375 -16.707031 2.882812 -16.859375 3.3125 -16.921875 C 3.738281 -16.992188 4.191406 -16.992188 4.671875 -16.921875 C 5.148438 -16.859375 5.578125 -16.738281 5.953125 -16.5625 C 6.328125 -16.394531 6.554688 -16.191406 6.640625 -15.953125 C 6.128906 -14.109375 5.6875 -12.539062 5.3125 -11.25 C 4.9375 -9.957031 4.613281 -8.832031 4.34375 -7.875 C 4.082031 -6.914062 3.847656 -5.984375 3.640625 -5.078125 C 3.472656 -4.273438 3.40625 -3.625 3.4375 -3.125 C 3.46875 -2.632812 3.691406 -2.40625 4.109375 -2.4375 C 4.722656 -2.4375 5.394531 -2.742188 6.125 -3.359375 C 6.863281 -3.972656 7.570312 -4.765625 8.25 -5.734375 C 8.925781 -6.703125 9.492188 -7.734375 9.953125 -8.828125 C 10.035156 -9.015625 10.207031 -9.0625 10.46875 -8.96875 C 10.738281 -8.875 10.972656 -8.734375 11.171875 -8.546875 C 11.367188 -8.367188 11.425781 -8.1875 11.34375 -8 C 10.925781 -7.09375 10.429688 -6.15625 9.859375 -5.1875 C 9.285156 -4.226562 8.625 -3.328125 7.875 -2.484375 C 7.125 -1.648438 6.300781 -0.972656 5.40625 -0.453125 C 4.519531 0.0546875 3.554688 0.328125 2.515625 0.359375 Z M 2.515625 0.359375" style="stroke:none"/></g></g><g style="fill:#4299e1;fill-opacity:1;"><g transform="translate(251.929155, 86.999997)"><path d="M 10.15625 -16.953125 C 11.644531 -16.890625 12.785156 -16.503906 13.578125 -15.796875 C 14.378906 -15.097656 14.847656 -14.238281 14.984375 -13.21875 C 15.117188 -12.207031 14.929688 -11.210938 14.421875 -10.234375 C 13.679688 -8.742188 12.425781 -7.679688 10.65625 -7.046875 C 8.882812 -6.421875 6.835938 -6.378906 4.515625 -6.921875 C 4.410156 -5.640625 4.707031 -4.601562 5.40625 -3.8125 C 6.113281 -3.03125 7.160156 -2.570312 8.546875 -2.4375 C 9.453125 -2.351562 10.476562 -2.476562 11.625 -2.8125 C 12.769531 -3.144531 13.894531 -3.789062 15 -4.75 C 16.113281 -5.707031 17.054688 -7.066406 17.828125 -8.828125 C 17.910156 -8.992188 18.082031 -9.035156 18.34375 -8.953125 C 18.613281 -8.867188 18.851562 -8.734375 19.0625 -8.546875 C 19.28125 -8.367188 19.347656 -8.195312 19.265625 -8.03125 C 18.460938 -6.21875 17.570312 -4.75 16.59375 -3.625 C 15.625 -2.507812 14.613281 -1.648438 13.5625 -1.046875 C 12.507812 -0.453125 11.460938 -0.0546875 10.421875 0.140625 C 9.390625 0.335938 8.394531 0.425781 7.4375 0.40625 C 5.40625 0.34375 3.800781 -0.125 2.625 -1 C 1.457031 -1.875 0.679688 -2.984375 0.296875 -4.328125 C -0.0859375 -5.679688 -0.117188 -7.101562 0.203125 -8.59375 C 0.578125 -10.351562 1.25 -11.863281 2.21875 -13.125 C 3.1875 -14.394531 4.363281 -15.363281 5.75 -16.03125 C 7.132812 -16.695312 8.601562 -17.003906 10.15625 -16.953125 Z M 9.625 -14.109375 C 9.019531 -14.160156 8.382812 -13.953125 7.71875 -13.484375 C 7.050781 -13.023438 6.457031 -12.394531 5.9375 -11.59375 C 5.414062 -10.789062 5.035156 -9.910156 4.796875 -8.953125 C 6.285156 -8.742188 7.515625 -8.863281 8.484375 -9.3125 C 9.460938 -9.757812 10.148438 -10.425781 10.546875 -11.3125 C 10.867188 -11.976562 10.988281 -12.601562 10.90625 -13.1875 C 10.832031 -13.769531 10.40625 -14.078125 9.625 -14.109375 Z M 9.625 -14.109375" style="stroke:none"/></g></g><g style="fill:#4299e1;fill-opacity:1;"><g transform="translate(269.517098, 86.999997)"><path d="M 7.90625 -26.703125 C 8.875 -27.335938 9.84375 -27.648438 10.8125 -27.640625 C 11.78125 -27.628906 12.625 -27.316406 13.34375 -26.703125 C 14.0625 -26.085938 14.535156 -25.226562 14.765625 -24.125 C 14.992188 -23.019531 14.867188 -21.691406 14.390625 -20.140625 C 13.722656 -17.878906 12.550781 -15.828125 10.875 -13.984375 C 9.195312 -12.148438 7.050781 -10.6875 4.4375 -9.59375 C 4.007812 -7.570312 3.914062 -5.894531 4.15625 -4.5625 C 4.394531 -3.226562 5.15625 -2.503906 6.4375 -2.390625 C 7.414062 -2.316406 8.363281 -2.59375 9.28125 -3.21875 C 10.207031 -3.84375 11.054688 -4.660156 11.828125 -5.671875 C 12.597656 -6.679688 13.253906 -7.75 13.796875 -8.875 C 13.867188 -9.03125 14.03125 -9.0625 14.28125 -8.96875 C 14.539062 -8.875 14.773438 -8.734375 14.984375 -8.546875 C 15.203125 -8.367188 15.269531 -8.195312 15.1875 -8.03125 C 14.414062 -6.457031 13.566406 -4.988281 12.640625 -3.625 C 11.722656 -2.269531 10.628906 -1.21875 9.359375 -0.46875 C 8.097656 0.269531 6.5625 0.546875 4.75 0.359375 C 3.394531 0.203125 2.359375 -0.257812 1.640625 -1.03125 C 0.921875 -1.8125 0.453125 -2.828125 0.234375 -4.078125 C 0.0234375 -5.328125 0.00390625 -6.75 0.171875 -8.34375 C 0.347656 -9.945312 0.648438 -11.65625 1.078125 -13.46875 C 1.535156 -15.382812 2.101562 -17.222656 2.78125 -18.984375 C 3.457031 -20.742188 4.226562 -22.300781 5.09375 -23.65625 C 5.957031 -25.019531 6.894531 -26.035156 7.90625 -26.703125 Z M 10.671875 -24.5 C 10.140625 -24.53125 9.597656 -24.070312 9.046875 -23.125 C 8.503906 -22.175781 7.953125 -20.984375 7.390625 -19.546875 C 7.046875 -18.691406 6.65625 -17.609375 6.21875 -16.296875 C 5.78125 -14.992188 5.382812 -13.707031 5.03125 -12.4375 C 6.101562 -13.15625 7.078125 -14.09375 7.953125 -15.25 C 8.828125 -16.40625 9.535156 -17.597656 10.078125 -18.828125 C 10.742188 -20.347656 11.148438 -21.664062 11.296875 -22.78125 C 11.441406 -23.894531 11.234375 -24.46875 10.671875 -24.5 Z M 10.671875 -24.5" style="stroke:none"/></g></g><g style="fill:#4299e1;fill-opacity:1;"><g transform="translate(290.622623, 86.999997)"><path d="M 19.0625 -26.734375 C 19.28125 -27.140625 19.628906 -27.40625 20.109375 -27.53125 C 20.585938 -27.664062 21.09375 -27.710938 21.625 -27.671875 C 22.15625 -27.640625 22.625 -27.53125 23.03125 -27.34375 C 23.445312 -27.15625 23.671875 -26.941406 23.703125 -26.703125 C 23.117188 -24.992188 22.539062 -23.09375 21.96875 -21 C 21.394531 -18.90625 20.8125 -16.804688 20.21875 -14.703125 C 19.632812 -12.597656 19.050781 -10.644531 18.46875 -8.84375 C 17.882812 -7.050781 17.296875 -5.59375 16.703125 -4.46875 C 17.796875 -3.300781 18.789062 -2.210938 19.6875 -1.203125 C 20.582031 -0.191406 21.460938 0.65625 22.328125 1.34375 C 23.191406 2.039062 24.09375 2.492188 25.03125 2.703125 C 25.976562 2.921875 27.054688 2.832031 28.265625 2.4375 C 28.609375 2.40625 28.898438 2.609375 29.140625 3.046875 C 29.378906 3.492188 29.503906 4.003906 29.515625 4.578125 C 29.523438 5.148438 29.332031 5.625 28.9375 6 C 27.226562 6.582031 25.664062 6.707031 24.25 6.375 C 22.84375 6.039062 21.5625 5.425781 20.40625 4.53125 C 19.25 3.644531 18.175781 2.617188 17.1875 1.453125 C 16.195312 0.296875 15.25 -0.828125 14.34375 -1.921875 C 13.625 -1.273438 12.863281 -0.742188 12.0625 -0.328125 C 11.269531 0.078125 10.191406 0.304688 8.828125 0.359375 C 7.046875 0.441406 5.65625 0.0507812 4.65625 -0.8125 C 3.65625 -1.6875 3.25 -2.851562 3.4375 -4.3125 C 3.519531 -5.269531 3.898438 -6.054688 4.578125 -6.671875 C 5.253906 -7.285156 6.09375 -7.71875 7.09375 -7.96875 C 8.09375 -8.226562 9.144531 -8.273438 10.25 -8.109375 C 11.351562 -7.953125 12.398438 -7.566406 13.390625 -6.953125 C 14.429688 -9.773438 15.289062 -12.597656 15.96875 -15.421875 C 16.644531 -18.253906 17.382812 -20.945312 18.1875 -23.5 C 17.382812 -22.570312 16.503906 -21.847656 15.546875 -21.328125 C 14.585938 -20.804688 13.65625 -20.367188 12.75 -20.015625 C 11.84375 -19.671875 11.066406 -19.289062 10.421875 -18.875 C 9.785156 -18.46875 9.375 -17.890625 9.1875 -17.140625 C 9.0625 -16.535156 9.078125 -15.976562 9.234375 -15.46875 C 9.390625 -14.957031 9.851562 -14.625 10.625 -14.46875 C 10.8125 -14.332031 10.898438 -14.09375 10.890625 -13.75 C 10.878906 -13.40625 10.789062 -13.070312 10.625 -12.75 C 10.46875 -12.425781 10.242188 -12.238281 9.953125 -12.1875 C 8.722656 -12.164062 7.6875 -12.398438 6.84375 -12.890625 C 6.007812 -13.378906 5.421875 -14.035156 5.078125 -14.859375 C 4.734375 -15.691406 4.65625 -16.570312 4.84375 -17.5 C 5.082031 -18.625 5.570312 -19.492188 6.3125 -20.109375 C 7.0625 -20.722656 7.96875 -21.210938 9.03125 -21.578125 C 10.09375 -21.953125 11.222656 -22.328125 12.421875 -22.703125 C 13.628906 -23.078125 14.8125 -23.566406 15.96875 -24.171875 C 17.125 -24.785156 18.15625 -25.640625 19.0625 -26.734375 Z M 7.390625 -4.59375 C 7.148438 -4.113281 7.15625 -3.625 7.40625 -3.125 C 7.664062 -2.632812 8.25 -2.390625 9.15625 -2.390625 C 9.894531 -2.390625 10.519531 -2.585938 11.03125 -2.984375 C 11.539062 -3.390625 11.96875 -3.859375 12.3125 -4.390625 C 11.832031 -4.867188 11.242188 -5.207031 10.546875 -5.40625 C 9.859375 -5.613281 9.210938 -5.65625 8.609375 -5.53125 C 8.015625 -5.414062 7.609375 -5.101562 7.390625 -4.59375 Z M 7.390625 -4.59375" style="stroke:none"/></g></g><g style="fill:#4299e1;fill-opacity:1;"><g transform="translate(314.566213, 86.999997)"><path d="M 10.078125 -17.03125 C 11.859375 -17.050781 13.222656 -16.65625 14.171875 -15.84375 C 15.117188 -15.03125 15.71875 -13.972656 15.96875 -12.671875 C 16.21875 -11.367188 16.160156 -9.957031 15.796875 -8.4375 C 15.441406 -6.914062 14.835938 -5.445312 13.984375 -4.03125 C 14.972656 -3.925781 16.003906 -4.191406 17.078125 -4.828125 C 18.160156 -5.472656 19.128906 -6.804688 19.984375 -8.828125 C 20.066406 -8.992188 20.238281 -9.035156 20.5 -8.953125 C 20.769531 -8.867188 21.003906 -8.738281 21.203125 -8.5625 C 21.398438 -8.394531 21.460938 -8.21875 21.390625 -8.03125 C 20.535156 -6.144531 19.597656 -4.765625 18.578125 -3.890625 C 17.566406 -3.023438 16.539062 -2.503906 15.5 -2.328125 C 14.46875 -2.160156 13.457031 -2.171875 12.46875 -2.359375 C 11.5625 -1.484375 10.554688 -0.800781 9.453125 -0.3125 C 8.347656 0.164062 7.128906 0.40625 5.796875 0.40625 C 4.515625 0.40625 3.351562 0.140625 2.3125 -0.390625 C 1.28125 -0.929688 0.53125 -1.800781 0.0625 -3 C -0.40625 -4.195312 -0.441406 -5.804688 -0.046875 -7.828125 C 0.328125 -9.671875 1.015625 -11.273438 2.015625 -12.640625 C 3.015625 -14.015625 4.210938 -15.082031 5.609375 -15.84375 C 7.015625 -16.601562 8.503906 -17 10.078125 -17.03125 Z M 9.546875 -14.1875 C 8.773438 -14.164062 8.039062 -13.828125 7.34375 -13.171875 C 6.65625 -12.515625 6.070312 -11.707031 5.59375 -10.75 C 5.113281 -9.789062 4.769531 -8.804688 4.5625 -7.796875 C 4.394531 -6.972656 4.304688 -6.144531 4.296875 -5.3125 C 4.285156 -4.488281 4.429688 -3.800781 4.734375 -3.25 C 5.046875 -2.707031 5.613281 -2.4375 6.4375 -2.4375 C 6.9375 -2.4375 7.425781 -2.5625 7.90625 -2.8125 C 8.394531 -3.070312 8.8125 -3.414062 9.15625 -3.84375 C 8.914062 -4.238281 8.84375 -4.632812 8.9375 -5.03125 C 9.03125 -5.4375 9.226562 -5.757812 9.53125 -6 C 9.832031 -6.238281 10.171875 -6.316406 10.546875 -6.234375 C 10.953125 -7.171875 11.257812 -8.109375 11.46875 -9.046875 C 11.6875 -9.992188 11.78125 -10.859375 11.75 -11.640625 C 11.71875 -12.429688 11.53125 -13.066406 11.1875 -13.546875 C 10.84375 -14.023438 10.296875 -14.238281 9.546875 -14.1875 Z M 9.546875 -14.1875" style="stroke:none"/></g></g><g style="fill:#4299e1;fill-opacity:1;"><g transform="translate(334.312684, 86.999997)"><path d="M 12.4375 -17.03125 C 13.945312 -17 14.921875 -16.460938 15.359375 -15.421875 C 15.804688 -14.390625 15.84375 -13.0625 15.46875 -11.4375 C 15.25 -10.53125 14.957031 -9.539062 14.59375 -8.46875 C 14.238281 -7.40625 13.957031 -6.394531 13.75 -5.4375 C 13.59375 -4.6875 13.503906 -4 13.484375 -3.375 C 13.472656 -2.75 13.722656 -2.4375 14.234375 -2.4375 C 14.785156 -2.4375 15.390625 -2.726562 16.046875 -3.3125 C 16.703125 -3.90625 17.351562 -4.6875 18 -5.65625 C 18.65625 -6.625 19.222656 -7.679688 19.703125 -8.828125 C 19.785156 -8.992188 19.953125 -9.035156 20.203125 -8.953125 C 20.453125 -8.867188 20.679688 -8.734375 20.890625 -8.546875 C 21.109375 -8.367188 21.179688 -8.195312 21.109375 -8.03125 C 20.703125 -7.15625 20.210938 -6.238281 19.640625 -5.28125 C 19.066406 -4.320312 18.421875 -3.414062 17.703125 -2.5625 C 16.984375 -1.707031 16.195312 -1.003906 15.34375 -0.453125 C 14.488281 0.0859375 13.582031 0.359375 12.625 0.359375 C 11.113281 0.390625 10.097656 0.015625 9.578125 -0.765625 C 9.054688 -1.554688 8.914062 -2.609375 9.15625 -3.921875 C 9.207031 -4.265625 9.3125 -4.753906 9.46875 -5.390625 C 9.632812 -6.035156 9.800781 -6.738281 9.96875 -7.5 C 10.144531 -8.257812 10.316406 -8.976562 10.484375 -9.65625 C 10.660156 -10.332031 10.789062 -10.867188 10.875 -11.265625 C 11.007812 -11.878906 11.066406 -12.453125 11.046875 -12.984375 C 11.035156 -13.523438 10.679688 -13.78125 9.984375 -13.75 C 9.535156 -13.75 9.007812 -13.554688 8.40625 -13.171875 C 7.8125 -12.785156 7.21875 -12.296875 6.625 -11.703125 C 6.039062 -11.117188 5.5 -10.492188 5 -9.828125 C 4.625 -8.578125 4.304688 -7.472656 4.046875 -6.515625 C 3.796875 -5.554688 3.5625 -4.601562 3.34375 -3.65625 C 3.132812 -2.707031 2.882812 -1.632812 2.59375 -0.4375 C 2.488281 -0.226562 2.203125 -0.0664062 1.734375 0.046875 C 1.273438 0.171875 0.769531 0.226562 0.21875 0.21875 C -0.320312 0.207031 -0.800781 0.125 -1.21875 -0.03125 C -1.632812 -0.195312 -1.851562 -0.441406 -1.875 -0.765625 C -1.238281 -3.421875 -0.578125 -5.972656 0.109375 -8.421875 C 0.804688 -10.878906 1.554688 -13.5625 2.359375 -16.46875 C 2.515625 -16.675781 2.800781 -16.828125 3.21875 -16.921875 C 3.632812 -17.015625 4.070312 -17.035156 4.53125 -16.984375 C 5 -16.929688 5.421875 -16.816406 5.796875 -16.640625 C 6.171875 -16.472656 6.410156 -16.226562 6.515625 -15.90625 C 6.328125 -15.269531 6.179688 -14.738281 6.078125 -14.3125 C 5.972656 -13.882812 5.828125 -13.378906 5.640625 -12.796875 C 6.117188 -13.347656 6.71875 -13.957031 7.4375 -14.625 C 8.15625 -15.289062 8.945312 -15.863281 9.8125 -16.34375 C 10.675781 -16.820312 11.550781 -17.050781 12.4375 -17.03125 Z M 12.4375 -17.03125" style="stroke:none"/></g></g><g style="fill:#4299e1;fill-opacity:1;"><g transform="translate(353.739372, 86.999997)"><path d="M 16.1875 -27.171875 C 16.320312 -27.359375 16.609375 -27.472656 17.046875 -27.515625 C 17.484375 -27.554688 17.960938 -27.535156 18.484375 -27.453125 C 19.003906 -27.378906 19.453125 -27.25 19.828125 -27.0625 C 20.203125 -26.875 20.390625 -26.632812 20.390625 -26.34375 C 20.035156 -25.351562 19.597656 -24.082031 19.078125 -22.53125 C 18.566406 -20.988281 18.03125 -19.328125 17.46875 -17.546875 C 16.90625 -15.765625 16.375 -13.992188 15.875 -12.234375 C 15.382812 -10.472656 15.003906 -8.859375 14.734375 -7.390625 C 14.472656 -5.929688 14.367188 -4.765625 14.421875 -3.890625 C 14.484375 -3.023438 14.78125 -2.59375 15.3125 -2.59375 C 15.84375 -2.625 16.425781 -2.929688 17.0625 -3.515625 C 17.707031 -4.097656 18.34375 -4.867188 18.96875 -5.828125 C 19.59375 -6.796875 20.117188 -7.796875 20.546875 -8.828125 C 20.617188 -8.992188 20.789062 -9.035156 21.0625 -8.953125 C 21.332031 -8.867188 21.566406 -8.734375 21.765625 -8.546875 C 21.960938 -8.367188 22.019531 -8.195312 21.9375 -8.03125 C 21.300781 -6.625 20.539062 -5.300781 19.65625 -4.0625 C 18.78125 -2.820312 17.816406 -1.8125 16.765625 -1.03125 C 15.710938 -0.257812 14.585938 0.132812 13.390625 0.15625 C 12.328125 0.1875 11.507812 -0.234375 10.9375 -1.109375 C 10.363281 -1.992188 10.171875 -3.179688 10.359375 -4.671875 C 9.953125 -3.878906 9.445312 -3.09375 8.84375 -2.3125 C 8.25 -1.539062 7.550781 -0.910156 6.75 -0.421875 C 5.957031 0.0664062 5.023438 0.328125 3.953125 0.359375 C 2.753906 0.390625 1.804688 0.125 1.109375 -0.4375 C 0.421875 -1 -0.046875 -1.75 -0.296875 -2.6875 C -0.546875 -3.632812 -0.597656 -4.6875 -0.453125 -5.84375 C -0.304688 -7.007812 0.015625 -8.1875 0.515625 -9.375 C 1.023438 -10.5625 1.691406 -11.660156 2.515625 -12.671875 C 3.523438 -13.953125 4.644531 -14.90625 5.875 -15.53125 C 7.101562 -16.15625 8.320312 -16.53125 9.53125 -16.65625 C 10.738281 -16.789062 11.796875 -16.769531 12.703125 -16.59375 C 13.003906 -17.601562 13.359375 -18.773438 13.765625 -20.109375 C 14.179688 -21.441406 14.609375 -22.738281 15.046875 -24 C 15.484375 -25.269531 15.863281 -26.328125 16.1875 -27.171875 Z M 11.90625 -13.828125 C 10.925781 -14.046875 9.84375 -13.882812 8.65625 -13.34375 C 7.46875 -12.8125 6.421875 -11.800781 5.515625 -10.3125 C 5.171875 -9.75 4.859375 -9.085938 4.578125 -8.328125 C 4.296875 -7.566406 4.085938 -6.804688 3.953125 -6.046875 C 3.816406 -5.296875 3.789062 -4.617188 3.875 -4.015625 C 3.957031 -3.421875 4.1875 -3.003906 4.5625 -2.765625 C 5.195312 -2.253906 6.039062 -2.457031 7.09375 -3.375 C 8.144531 -4.289062 9.097656 -5.738281 9.953125 -7.71875 C 10.273438 -8.4375 10.601562 -9.328125 10.9375 -10.390625 C 11.269531 -11.453125 11.59375 -12.597656 11.90625 -13.828125 Z M 11.90625 -13.828125" style="stroke:none"/></g></g><g style="fill:#4299e1;fill-opacity:1;"><g transform="translate(374.045458, 86.999997)"><path d="M 10.078125 -17.03125 C 11.859375 -17.050781 13.222656 -16.65625 14.171875 -15.84375 C 15.117188 -15.03125 15.71875 -13.972656 15.96875 -12.671875 C 16.21875 -11.367188 16.160156 -9.957031 15.796875 -8.4375 C 15.441406 -6.914062 14.835938 -5.445312 13.984375 -4.03125 C 14.972656 -3.925781 16.003906 -4.191406 17.078125 -4.828125 C 18.160156 -5.472656 19.128906 -6.804688 19.984375 -8.828125 C 20.066406 -8.992188 20.238281 -9.035156 20.5 -8.953125 C 20.769531 -8.867188 21.003906 -8.738281 21.203125 -8.5625 C 21.398438 -8.394531 21.460938 -8.21875 21.390625 -8.03125 C 20.535156 -6.144531 19.597656 -4.765625 18.578125 -3.890625 C 17.566406 -3.023438 16.539062 -2.503906 15.5 -2.328125 C 14.46875 -2.160156 13.457031 -2.171875 12.46875 -2.359375 C 11.5625 -1.484375 10.554688 -0.800781 9.453125 -0.3125 C 8.347656 0.164062 7.128906 0.40625 5.796875 0.40625 C 4.515625 0.40625 3.351562 0.140625 2.3125 -0.390625 C 1.28125 -0.929688 0.53125 -1.800781 0.0625 -3 C -0.40625 -4.195312 -0.441406 -5.804688 -0.046875 -7.828125 C 0.328125 -9.671875 1.015625 -11.273438 2.015625 -12.640625 C 3.015625 -14.015625 4.210938 -15.082031 5.609375 -15.84375 C 7.015625 -16.601562 8.503906 -17 10.078125 -17.03125 Z M 9.546875 -14.1875 C 8.773438 -14.164062 8.039062 -13.828125 7.34375 -13.171875 C 6.65625 -12.515625 6.070312 -11.707031 5.59375 -10.75 C 5.113281 -9.789062 4.769531 -8.804688 4.5625 -7.796875 C 4.394531 -6.972656 4.304688 -6.144531 4.296875 -5.3125 C 4.285156 -4.488281 4.429688 -3.800781 4.734375 -3.25 C 5.046875 -2.707031 5.613281 -2.4375 6.4375 -2.4375 C 6.9375 -2.4375 7.425781 -2.5625 7.90625 -2.8125 C 8.394531 -3.070312 8.8125 -3.414062 9.15625 -3.84375 C 8.914062 -4.238281 8.84375 -4.632812 8.9375 -5.03125 C 9.03125 -5.4375 9.226562 -5.757812 9.53125 -6 C 9.832031 -6.238281 10.171875 -6.316406 10.546875 -6.234375 C 10.953125 -7.171875 11.257812 -8.109375 11.46875 -9.046875 C 11.6875 -9.992188 11.78125 -10.859375 11.75 -11.640625 C 11.71875 -12.429688 11.53125 -13.066406 11.1875 -13.546875 C 10.84375 -14.023438 10.296875 -14.238281 9.546875 -14.1875 Z M 9.546875 -14.1875" style="stroke:none"/></g></g><g style="fill:#4299e1;fill-opacity:1;"><g transform="translate(393.791916, 86.999997)"><path d="M 12.15625 -19.828125 C 11.613281 -19.847656 11.113281 -19.972656 10.65625 -20.203125 C 10.207031 -20.429688 9.785156 -20.65625 9.390625 -20.875 C 8.992188 -21.101562 8.59375 -21.21875 8.1875 -21.21875 C 7.820312 -21.21875 7.503906 -21.128906 7.234375 -20.953125 C 6.960938 -20.785156 6.695312 -20.515625 6.4375 -20.140625 C 6.332031 -19.984375 6.117188 -19.976562 5.796875 -20.125 C 5.472656 -20.269531 5.191406 -20.472656 4.953125 -20.734375 C 4.710938 -21.003906 4.644531 -21.25 4.75 -21.46875 C 5.050781 -22.070312 5.492188 -22.628906 6.078125 -23.140625 C 6.660156 -23.648438 7.394531 -23.890625 8.28125 -23.859375 C 8.863281 -23.859375 9.367188 -23.742188 9.796875 -23.515625 C 10.222656 -23.296875 10.628906 -23.078125 11.015625 -22.859375 C 11.398438 -22.648438 11.816406 -22.53125 12.265625 -22.5 C 12.671875 -22.476562 13 -22.546875 13.25 -22.703125 C 13.5 -22.859375 13.757812 -23.113281 14.03125 -23.46875 C 14.1875 -23.644531 14.40625 -23.660156 14.6875 -23.515625 C 14.96875 -23.367188 15.207031 -23.15625 15.40625 -22.875 C 15.601562 -22.601562 15.648438 -22.347656 15.546875 -22.109375 C 15.273438 -21.515625 14.847656 -20.976562 14.265625 -20.5 C 13.679688 -20.019531 12.976562 -19.796875 12.15625 -19.828125 Z M 12.4375 -17.03125 C 13.945312 -17 14.921875 -16.460938 15.359375 -15.421875 C 15.804688 -14.390625 15.84375 -13.0625 15.46875 -11.4375 C 15.25 -10.53125 14.957031 -9.539062 14.59375 -8.46875 C 14.238281 -7.40625 13.957031 -6.394531 13.75 -5.4375 C 13.59375 -4.6875 13.503906 -4 13.484375 -3.375 C 13.472656 -2.75 13.722656 -2.4375 14.234375 -2.4375 C 14.785156 -2.4375 15.390625 -2.726562 16.046875 -3.3125 C 16.703125 -3.90625 17.351562 -4.6875 18 -5.65625 C 18.65625 -6.625 19.222656 -7.679688 19.703125 -8.828125 C 19.785156 -8.992188 19.953125 -9.035156 20.203125 -8.953125 C 20.453125 -8.867188 20.679688 -8.734375 20.890625 -8.546875 C 21.109375 -8.367188 21.179688 -8.195312 21.109375 -8.03125 C 20.703125 -7.15625 20.210938 -6.238281 19.640625 -5.28125 C 19.066406 -4.320312 18.421875 -3.414062 17.703125 -2.5625 C 16.984375 -1.707031 16.195312 -1.003906 15.34375 -0.453125 C 14.488281 0.0859375 13.582031 0.359375 12.625 0.359375 C 11.113281 0.390625 10.097656 0.015625 9.578125 -0.765625 C 9.054688 -1.554688 8.914062 -2.609375 9.15625 -3.921875 C 9.207031 -4.265625 9.3125 -4.753906 9.46875 -5.390625 C 9.632812 -6.035156 9.800781 -6.738281 9.96875 -7.5 C 10.144531 -8.257812 10.316406 -8.976562 10.484375 -9.65625 C 10.660156 -10.332031 10.789062 -10.867188 10.875 -11.265625 C 11.007812 -11.878906 11.066406 -12.453125 11.046875 -12.984375 C 11.035156 -13.523438 10.679688 -13.78125 9.984375 -13.75 C 9.535156 -13.75 9.007812 -13.554688 8.40625 -13.171875 C 7.8125 -12.785156 7.21875 -12.296875 6.625 -11.703125 C 6.039062 -11.117188 5.5 -10.492188 5 -9.828125 C 4.625 -8.578125 4.304688 -7.472656 4.046875 -6.515625 C 3.796875 -5.554688 3.5625 -4.601562 3.34375 -3.65625 C 3.132812 -2.707031 2.882812 -1.632812 2.59375 -0.4375 C 2.488281 -0.226562 2.203125 -0.0664062 1.734375 0.046875 C 1.273438 0.171875 0.769531 0.226562 0.21875 0.21875 C -0.320312 0.207031 -0.800781 0.125 -1.21875 -0.03125 C -1.632812 -0.195312 -1.851562 -0.441406 -1.875 -0.765625 C -1.238281 -3.421875 -0.578125 -5.972656 0.109375 -8.421875 C 0.804688 -10.878906 1.554688 -13.5625 2.359375 -16.46875 C 2.515625 -16.675781 2.800781 -16.828125 3.21875 -16.921875 C 3.632812 -17.015625 4.070312 -17.035156 4.53125 -16.984375 C 5 -16.929688 5.421875 -16.816406 5.796875 -16.640625 C 6.171875 -16.472656 6.410156 -16.226562 6.515625 -15.90625 C 6.328125 -15.269531 6.179688 -14.738281 6.078125 -14.3125 C 5.972656 -13.882812 5.828125 -13.378906 5.640625 -12.796875 C 6.117188 -13.347656 6.71875 -13.957031 7.4375 -14.625 C 8.15625 -15.289062 8.945312 -15.863281 9.8125 -16.34375 C 10.675781 -16.820312 11.550781 -17.050781 12.4375 -17.03125 Z M 12.4375 -17.03125" style="stroke:none"/></g></g><g style="fill:#4299e1;fill-opacity:1;"><g transform="translate(413.218628, 86.999997)"><path d="M 10.078125 -17.03125 C 11.859375 -17.050781 13.222656 -16.65625 14.171875 -15.84375 C 15.117188 -15.03125 15.71875 -13.972656 15.96875 -12.671875 C 16.21875 -11.367188 16.160156 -9.957031 15.796875 -8.4375 C 15.441406 -6.914062 14.835938 -5.445312 13.984375 -4.03125 C 14.972656 -3.925781 16.003906 -4.191406 17.078125 -4.828125 C 18.160156 -5.472656 19.128906 -6.804688 19.984375 -8.828125 C 20.066406 -8.992188 20.238281 -9.035156 20.5 -8.953125 C 20.769531 -8.867188 21.003906 -8.738281 21.203125 -8.5625 C 21.398438 -8.394531 21.460938 -8.21875 21.390625 -8.03125 C 20.535156 -6.144531 19.597656 -4.765625 18.578125 -3.890625 C 17.566406 -3.023438 16.539062 -2.503906 15.5 -2.328125 C 14.46875 -2.160156 13.457031 -2.171875 12.46875 -2.359375 C 11.5625 -1.484375 10.554688 -0.800781 9.453125 -0.3125 C 8.347656 0.164062 7.128906 0.40625 5.796875 0.40625 C 4.515625 0.40625 3.351562 0.140625 2.3125 -0.390625 C 1.28125 -0.929688 0.53125 -1.800781 0.0625 -3 C -0.40625 -4.195312 -0.441406 -5.804688 -0.046875 -7.828125 C 0.328125 -9.671875 1.015625 -11.273438 2.015625 -12.640625 C 3.015625 -14.015625 4.210938 -15.082031 5.609375 -15.84375 C 7.015625 -16.601562 8.503906 -17 10.078125 -17.03125 Z M 9.546875 -14.1875 C 8.773438 -14.164062 8.039062 -13.828125 7.34375 -13.171875 C 6.65625 -12.515625 6.070312 -11.707031 5.59375 -10.75 C 5.113281 -9.789062 4.769531 -8.804688 4.5625 -7.796875 C 4.394531 -6.972656 4.304688 -6.144531 4.296875 -5.3125 C 4.285156 -4.488281 4.429688 -3.800781 4.734375 -3.25 C 5.046875 -2.707031 5.613281 -2.4375 6.4375 -2.4375 C 6.9375 -2.4375 7.425781 -2.5625 7.90625 -2.8125 C 8.394531 -3.070312 8.8125 -3.414062 9.15625 -3.84375 C 8.914062 -4.238281 8.84375 -4.632812 8.9375 -5.03125 C 9.03125 -5.4375 9.226562 -5.757812 9.53125 -6 C 9.832031 -6.238281 10.171875 -6.316406 10.546875 -6.234375 C 10.953125 -7.171875 11.257812 -8.109375 11.46875 -9.046875 C 11.6875 -9.992188 11.78125 -10.859375 11.75 -11.640625 C 11.71875 -12.429688 11.53125 -13.066406 11.1875 -13.546875 C 10.84375 -14.023438 10.296875 -14.238281 9.546875 -14.1875 Z M 9.546875 -14.1875" style="stroke:none"/></g></g></g></svg>