<svg xmlns="http://www.w3.org/2000/svg" xmlns:xlink="http://www.w3.org/1999/xlink" width="800" zoomAndPan="magnify" viewBox="0 0 600 149.999998" height="200" preserveAspectRatio="xMidYMid meet" version="1.2"><defs/><g id="6a6bcbe760"><g style="fill:#3b82f6;fill-opacity:1;"><g transform="translate(4.557965, 99.986112)"><path style="stroke:none" d="M 15.59375 22.515625 C 12.769531 22.515625 10.203125 21.828125 7.890625 20.453125 C 5.578125 19.078125 3.765625 17.203125 2.453125 14.828125 C 1.140625 12.453125 0.484375 9.785156 0.484375 6.828125 C 0.484375 3.617188 1.300781 0.523438 2.9375 -2.453125 C 4.570312 -5.441406 6.753906 -8.28125 9.484375 -10.96875 C 12.210938 -13.664062 15.210938 -16.1875 18.484375 -18.53125 C 21.753906 -20.875 25.054688 -22.988281 28.390625 -24.875 C 31.734375 -26.769531 34.832031 -28.421875 37.6875 -29.828125 C 40.539062 -31.242188 42.863281 -32.335938 44.65625 -33.109375 C 46.707031 -35.484375 49.128906 -38.144531 51.921875 -41.09375 C 54.710938 -44.050781 57.710938 -47.097656 60.921875 -50.234375 C 64.128906 -53.378906 67.335938 -56.476562 70.546875 -59.53125 C 73.753906 -62.582031 76.785156 -65.375 79.640625 -67.90625 C 82.503906 -70.4375 84.992188 -72.566406 87.109375 -74.296875 C 89.222656 -76.035156 90.757812 -77.160156 91.71875 -77.671875 C 92.425781 -78.054688 93.097656 -78.085938 93.734375 -77.765625 C 94.378906 -77.441406 94.925781 -76.957031 95.375 -76.3125 C 95.832031 -75.675781 96.125 -75.101562 96.25 -74.59375 C 96.375 -74.082031 96.28125 -73.828125 95.96875 -73.828125 C 94.675781 -73.828125 92.84375 -72.765625 90.46875 -70.640625 C 85.53125 -66.472656 81.085938 -62.546875 77.140625 -58.859375 C 73.191406 -55.171875 69.390625 -51.515625 65.734375 -47.890625 C 62.078125 -44.265625 58.195312 -40.425781 54.09375 -36.375 C 56.71875 -36.894531 59.101562 -37.265625 61.25 -37.484375 C 63.40625 -37.710938 65.769531 -37.828125 68.34375 -37.828125 C 71.351562 -37.828125 74.414062 -37.472656 77.53125 -36.765625 C 80.644531 -36.054688 83.53125 -35.078125 86.1875 -33.828125 C 88.851562 -32.578125 91.035156 -31.082031 92.734375 -29.34375 C 94.429688 -27.613281 95.347656 -25.722656 95.484375 -23.671875 C 95.546875 -23.035156 95.382812 -22.703125 95 -22.671875 C 94.613281 -22.640625 94.195312 -22.910156 93.75 -23.484375 C 91.945312 -25.472656 89.601562 -27.203125 86.71875 -28.671875 C 83.832031 -30.148438 80.640625 -31.289062 77.140625 -32.09375 C 73.648438 -32.894531 70.039062 -33.296875 66.3125 -33.296875 C 59.832031 -33.296875 54.21875 -32.144531 49.46875 -29.84375 C 48.0625 -28.425781 46.378906 -26.59375 44.421875 -24.34375 C 42.460938 -22.101562 40.566406 -19.75 38.734375 -17.28125 C 36.910156 -14.8125 35.390625 -12.46875 34.171875 -10.25 C 32.953125 -8.039062 32.34375 -6.257812 32.34375 -4.90625 C 32.34375 -3.5625 33.113281 -2.566406 34.65625 -1.921875 C 35.039062 -1.796875 35.003906 -1.601562 34.546875 -1.34375 C 34.097656 -1.09375 33.457031 -0.96875 32.625 -0.96875 C 31.019531 -0.96875 29.769531 -1.539062 28.875 -2.6875 C 27.976562 -3.84375 27.53125 -5.414062 27.53125 -7.40625 C 27.53125 -10.101562 28.363281 -12.71875 30.03125 -15.25 C 31.695312 -17.789062 33.71875 -20.472656 36.09375 -23.296875 C 32.820312 -21.816406 29.40625 -19.921875 25.84375 -17.609375 C 22.28125 -15.304688 18.957031 -12.738281 15.875 -9.90625 C 12.800781 -7.082031 10.316406 -4.128906 8.421875 -1.046875 C 6.523438 2.023438 5.578125 5.066406 5.578125 8.078125 C 5.578125 11.484375 6.765625 13.875 9.140625 15.25 C 11.515625 16.632812 14.335938 17.328125 17.609375 17.328125 C 21.785156 17.328125 26.566406 16.554688 31.953125 15.015625 C 37.347656 13.472656 43.09375 11.320312 49.1875 8.5625 C 55.28125 5.800781 61.503906 2.5625 67.859375 -1.15625 C 74.210938 -4.875 80.421875 -8.898438 86.484375 -13.234375 C 92.546875 -17.566406 98.222656 -22.054688 103.515625 -26.703125 C 108.804688 -31.359375 113.488281 -36.0625 117.5625 -40.8125 C 121.644531 -45.5625 124.820312 -50.164062 127.09375 -54.625 C 129.375 -59.082031 130.515625 -63.269531 130.515625 -67.1875 C 130.515625 -70.644531 129.566406 -73.640625 127.671875 -76.171875 C 125.785156 -78.710938 123.125 -80.703125 119.6875 -82.140625 C 116.25 -83.585938 112.253906 -84.3125 107.703125 -84.3125 C 103.210938 -84.375 98.335938 -83.734375 93.078125 -82.390625 C 87.816406 -81.046875 82.519531 -79.21875 77.1875 -76.90625 C 71.863281 -74.59375 66.828125 -71.976562 62.078125 -69.0625 C 57.328125 -66.144531 53.171875 -63.128906 49.609375 -60.015625 C 46.054688 -56.898438 43.394531 -53.878906 41.625 -50.953125 C 39.863281 -48.035156 39.335938 -45.394531 40.046875 -43.03125 C 40.171875 -42.644531 39.957031 -42.304688 39.40625 -42.015625 C 38.863281 -41.722656 38.222656 -41.59375 37.484375 -41.625 C 36.742188 -41.65625 36.066406 -41.910156 35.453125 -42.390625 C 34.847656 -42.878906 34.546875 -43.703125 34.546875 -44.859375 C 34.546875 -47.679688 35.648438 -50.710938 37.859375 -53.953125 C 40.078125 -57.191406 43.097656 -60.460938 46.921875 -63.765625 C 50.742188 -67.066406 55.09375 -70.222656 59.96875 -73.234375 C 64.84375 -76.253906 69.941406 -78.953125 75.265625 -81.328125 C 80.585938 -83.703125 85.878906 -85.578125 91.140625 -86.953125 C 96.410156 -88.335938 101.289062 -89.03125 105.78125 -89.03125 C 116.113281 -89.03125 123.6875 -86.976562 128.5 -82.875 C 133.3125 -78.769531 135.71875 -72.382812 135.71875 -63.71875 C 135.71875 -60.382812 134.546875 -56.597656 132.203125 -52.359375 C 129.859375 -48.117188 126.613281 -43.640625 122.46875 -38.921875 C 118.332031 -34.210938 113.535156 -29.4375 108.078125 -24.59375 C 102.628906 -19.75 96.742188 -15.046875 90.421875 -10.484375 C 84.109375 -5.929688 77.597656 -1.648438 70.890625 2.359375 C 64.179688 6.367188 57.519531 9.878906 50.90625 12.890625 C 44.300781 15.910156 38 18.269531 32 19.96875 C 26 21.664062 20.53125 22.515625 15.59375 22.515625 Z M 15.59375 22.515625 "/></g></g><g style="fill:#3b82f6;fill-opacity:1;"><g transform="translate(117.743334, 99.986112)"><path style="stroke:none" d="M 51.203125 -23.484375 C 51.785156 -24.054688 52.171875 -23.988281 52.359375 -23.28125 C 52.554688 -22.582031 52.492188 -21.671875 52.171875 -20.546875 C 51.847656 -19.421875 51.238281 -18.441406 50.34375 -17.609375 C 50.019531 -17.359375 49.234375 -16.601562 47.984375 -15.34375 C 46.734375 -14.09375 45.191406 -12.566406 43.359375 -10.765625 C 41.535156 -8.972656 39.5625 -7.113281 37.4375 -5.1875 C 35.320312 -3.269531 33.222656 -1.460938 31.140625 0.234375 C 29.054688 1.941406 27.160156 3.320312 25.453125 4.375 C 23.753906 5.4375 22.425781 5.96875 21.46875 5.96875 C 20.3125 5.96875 19.25 5.328125 18.28125 4.046875 C 17.320312 2.765625 16.84375 1.578125 16.84375 0.484375 C 16.84375 -1.566406 17.382812 -3.828125 18.46875 -6.296875 C 19.5625 -8.773438 21.101562 -11.519531 23.09375 -14.53125 C 20.65625 -12.289062 18.15625 -10.046875 15.59375 -7.796875 C 13.03125 -5.546875 10.703125 -3.679688 8.609375 -2.203125 C 6.523438 -0.734375 4.9375 0 3.84375 0 C 2.757812 0 1.6875 -0.578125 0.625 -1.734375 C -0.4375 -2.890625 -0.96875 -4.332031 -0.96875 -6.0625 C -0.96875 -7.476562 -0.421875 -9.226562 0.671875 -11.3125 C 1.765625 -13.394531 3.207031 -15.609375 5 -17.953125 C 6.800781 -20.296875 8.804688 -22.601562 11.015625 -24.875 C 13.234375 -27.15625 15.445312 -29.238281 17.65625 -31.125 C 19.875 -33.019531 21.925781 -34.53125 23.8125 -35.65625 C 25.707031 -36.78125 27.265625 -37.34375 28.484375 -37.34375 C 30.410156 -37.34375 32.175781 -36.84375 33.78125 -35.84375 C 35.382812 -34.851562 36.476562 -33.8125 37.0625 -32.71875 C 37.894531 -33.6875 38.773438 -34.664062 39.703125 -35.65625 C 40.628906 -36.65625 41.507812 -37.378906 42.34375 -37.828125 C 42.863281 -38.148438 43.441406 -38.148438 44.078125 -37.828125 C 44.722656 -37.503906 45.300781 -37.035156 45.8125 -36.421875 C 46.320312 -35.816406 46.640625 -35.253906 46.765625 -34.734375 C 46.898438 -34.222656 46.679688 -33.9375 46.109375 -33.875 C 45.523438 -33.8125 44.460938 -33.007812 42.921875 -31.46875 C 41.390625 -29.925781 39.628906 -27.96875 37.640625 -25.59375 C 35.648438 -23.226562 33.625 -20.679688 31.5625 -17.953125 C 29.507812 -15.222656 27.648438 -12.570312 25.984375 -10 C 24.316406 -7.4375 23.097656 -5.238281 22.328125 -3.40625 C 21.554688 -1.582031 21.425781 -0.382812 21.9375 0.1875 C 22.320312 0.570312 23.21875 0.347656 24.625 -0.484375 C 26.039062 -1.316406 27.757812 -2.535156 29.78125 -4.140625 C 31.8125 -5.742188 33.945312 -7.523438 36.1875 -9.484375 C 38.4375 -11.441406 40.601562 -13.378906 42.6875 -15.296875 C 44.769531 -17.222656 46.566406 -18.925781 48.078125 -20.40625 C 49.585938 -21.882812 50.628906 -22.910156 51.203125 -23.484375 Z M 3.84375 -5.78125 C 4.164062 -5.394531 4.984375 -5.566406 6.296875 -6.296875 C 7.617188 -7.035156 9.257812 -8.144531 11.21875 -9.625 C 13.175781 -11.101562 15.257812 -12.769531 17.46875 -14.625 C 19.6875 -16.488281 21.835938 -18.363281 23.921875 -20.25 C 26.003906 -22.144531 27.847656 -23.863281 29.453125 -25.40625 C 31.054688 -26.945312 32.210938 -28.132812 32.921875 -28.96875 C 32.722656 -29.476562 32.191406 -30.132812 31.328125 -30.9375 C 30.460938 -31.738281 29.484375 -32.140625 28.390625 -32.140625 C 27.234375 -32.140625 25.789062 -31.578125 24.0625 -30.453125 C 22.332031 -29.335938 20.472656 -27.863281 18.484375 -26.03125 C 16.492188 -24.207031 14.566406 -22.234375 12.703125 -20.109375 C 10.835938 -17.992188 9.164062 -15.941406 7.6875 -13.953125 C 6.21875 -11.960938 5.113281 -10.226562 4.375 -8.75 C 3.632812 -7.28125 3.457031 -6.289062 3.84375 -5.78125 Z M 3.84375 -5.78125 "/></g></g><g style="fill:#3b82f6;fill-opacity:1;"><g transform="translate(158.166679, 99.986112)"><path style="stroke:none" d="M -1.921875 5.96875 C -2.628906 5.96875 -3.238281 5.566406 -3.75 4.765625 C -4.269531 3.960938 -4.609375 3.046875 -4.765625 2.015625 C -4.921875 0.992188 -4.804688 0.160156 -4.421875 -0.484375 C -2.953125 -2.984375 -1.222656 -5.769531 0.765625 -8.84375 C 2.753906 -11.925781 4.90625 -15.101562 7.21875 -18.375 C 9.53125 -21.65625 11.90625 -24.882812 14.34375 -28.0625 C 16.78125 -31.238281 19.125 -34.140625 21.375 -36.765625 C 21.882812 -37.410156 22.488281 -37.539062 23.1875 -37.15625 C 23.894531 -36.769531 24.519531 -36.175781 25.0625 -35.375 C 25.613281 -34.570312 25.953125 -33.832031 26.078125 -33.15625 C 26.210938 -32.476562 25.957031 -32.140625 25.3125 -32.140625 C 24.925781 -32.140625 24.171875 -31.609375 23.046875 -30.546875 C 21.929688 -29.492188 20.632812 -28.132812 19.15625 -26.46875 C 17.675781 -24.800781 16.164062 -23.003906 14.625 -21.078125 C 13.851562 -20.117188 12.988281 -18.976562 12.03125 -17.65625 C 11.070312 -16.34375 10.171875 -15.09375 9.328125 -13.90625 C 8.492188 -12.71875 7.882812 -11.816406 7.5 -11.203125 C 7.125 -10.597656 7.160156 -10.488281 7.609375 -10.875 C 11.585938 -14.46875 15.484375 -17.851562 19.296875 -21.03125 C 23.117188 -24.207031 26.613281 -27 29.78125 -29.40625 C 32.957031 -31.8125 35.648438 -33.703125 37.859375 -35.078125 C 40.078125 -36.460938 41.609375 -37.15625 42.453125 -37.15625 C 43.347656 -37.15625 43.988281 -36.738281 44.375 -35.90625 C 45.207031 -35.382812 45.625 -34.804688 45.625 -34.171875 C 45.625 -33.785156 45.109375 -32.851562 44.078125 -31.375 C 43.054688 -29.894531 41.773438 -28.097656 40.234375 -25.984375 C 38.691406 -23.867188 37.070312 -21.65625 35.375 -19.34375 C 33.675781 -17.03125 32.132812 -14.816406 30.75 -12.703125 C 29.375 -10.585938 28.363281 -8.742188 27.71875 -7.171875 C 27.070312 -5.597656 27.007812 -4.523438 27.53125 -3.953125 C 27.914062 -3.566406 28.71875 -3.675781 29.9375 -4.28125 C 31.15625 -4.894531 32.613281 -5.859375 34.3125 -7.171875 C 36.007812 -8.484375 37.789062 -9.941406 39.65625 -11.546875 C 41.519531 -13.148438 43.332031 -14.769531 45.09375 -16.40625 C 46.851562 -18.039062 48.390625 -19.484375 49.703125 -20.734375 C 51.023438 -21.992188 51.972656 -22.910156 52.546875 -23.484375 C 53.128906 -24.054688 53.53125 -23.988281 53.75 -23.28125 C 53.976562 -22.582031 53.945312 -21.671875 53.65625 -20.546875 C 53.363281 -19.421875 52.769531 -18.441406 51.875 -17.609375 C 51.488281 -17.285156 50.601562 -16.414062 49.21875 -15 C 47.84375 -13.59375 46.160156 -11.941406 44.171875 -10.046875 C 42.179688 -8.160156 40.097656 -6.316406 37.921875 -4.515625 C 35.742188 -2.722656 33.707031 -1.21875 31.8125 0 C 29.914062 1.21875 28.359375 1.828125 27.140625 1.828125 C 25.597656 1.828125 24.3125 1.1875 23.28125 -0.09375 C 22.257812 -1.375 21.75 -2.5625 21.75 -3.65625 C 21.75 -5.070312 22.242188 -6.738281 23.234375 -8.65625 C 24.234375 -10.582031 25.4375 -12.585938 26.84375 -14.671875 C 28.257812 -16.765625 29.65625 -18.707031 31.03125 -20.5 C 32.414062 -22.300781 33.523438 -23.8125 34.359375 -25.03125 C 35.191406 -26.25 35.484375 -26.953125 35.234375 -27.140625 C 35.035156 -27.335938 34.296875 -27 33.015625 -26.125 C 31.734375 -25.257812 30.128906 -24.085938 28.203125 -22.609375 C 26.273438 -21.140625 24.203125 -19.488281 21.984375 -17.65625 C 19.773438 -15.832031 17.59375 -13.972656 15.4375 -12.078125 C 13.289062 -10.179688 11.382812 -8.414062 9.71875 -6.78125 C 8.050781 -5.144531 6.769531 -3.816406 5.875 -2.796875 C 3.6875 -0.222656 2.015625 1.878906 0.859375 3.515625 C -0.285156 5.148438 -1.210938 5.96875 -1.921875 5.96875 Z M -1.921875 5.96875 "/></g></g><g style="fill:#3b82f6;fill-opacity:1;"><g transform="translate(200.033708, 99.986112)"><path style="stroke:none" d="M 31.09375 -42.15625 C 30.507812 -42.09375 30.070312 -42.378906 29.78125 -43.015625 C 29.5 -43.660156 29.484375 -44.273438 29.734375 -44.859375 C 30.117188 -45.753906 30.789062 -46.828125 31.75 -48.078125 C 32.71875 -49.328125 33.796875 -50.5625 34.984375 -51.78125 C 36.171875 -53 37.3125 -54.023438 38.40625 -54.859375 C 39.5 -55.691406 40.363281 -56.140625 41 -56.203125 C 41.894531 -56.273438 42.679688 -56.019531 43.359375 -55.4375 C 44.035156 -54.863281 44.40625 -54.125 44.46875 -53.21875 C 44.46875 -52.96875 44.035156 -52.425781 43.171875 -51.59375 C 42.304688 -50.757812 41.226562 -49.8125 39.9375 -48.75 C 38.65625 -47.6875 37.359375 -46.640625 36.046875 -45.609375 C 34.734375 -44.585938 33.609375 -43.753906 32.671875 -43.109375 C 31.742188 -42.472656 31.21875 -42.15625 31.09375 -42.15625 Z M 5.671875 1.546875 C 4.523438 1.546875 3.46875 0.859375 2.5 -0.515625 C 1.539062 -1.898438 1.0625 -3.269531 1.0625 -4.625 C 1.0625 -6.414062 1.523438 -8.414062 2.453125 -10.625 C 3.378906 -12.84375 4.546875 -15.070312 5.953125 -17.3125 C 7.367188 -19.5625 8.785156 -21.554688 10.203125 -23.296875 C 13.796875 -27.660156 16.519531 -30.882812 18.375 -32.96875 C 20.238281 -35.050781 21.585938 -36.09375 22.421875 -36.09375 C 23.390625 -36.09375 24.097656 -35.691406 24.546875 -34.890625 C 24.992188 -34.085938 25.234375 -33.285156 25.265625 -32.484375 C 25.296875 -31.679688 25.054688 -31.28125 24.546875 -31.28125 C 24.160156 -31.28125 23.375 -30.703125 22.1875 -29.546875 C 21 -28.390625 19.601562 -26.878906 18 -25.015625 C 16.394531 -23.160156 14.789062 -21.15625 13.1875 -19 C 11.582031 -16.851562 10.15625 -14.753906 8.90625 -12.703125 C 7.65625 -10.648438 6.753906 -8.867188 6.203125 -7.359375 C 5.660156 -5.847656 5.644531 -4.804688 6.15625 -4.234375 C 6.675781 -3.722656 7.753906 -3.914062 9.390625 -4.8125 C 11.023438 -5.707031 13.007812 -7.101562 15.34375 -9 C 17.6875 -10.894531 20.207031 -13.109375 22.90625 -15.640625 C 25.601562 -18.171875 28.300781 -20.785156 31 -23.484375 C 31.695312 -24.191406 32.125 -24.367188 32.28125 -24.015625 C 32.445312 -23.660156 32.414062 -23.035156 32.1875 -22.140625 C 31.96875 -21.242188 31.648438 -20.328125 31.234375 -19.390625 C 30.816406 -18.460938 30.382812 -17.773438 29.9375 -17.328125 C 27.75 -15.210938 25.515625 -13.046875 23.234375 -10.828125 C 20.960938 -8.609375 18.765625 -6.566406 16.640625 -4.703125 C 14.523438 -2.847656 12.519531 -1.34375 10.625 -0.1875 C 8.738281 0.96875 7.085938 1.546875 5.671875 1.546875 Z M 5.671875 1.546875 "/></g></g><g style="fill:#3b82f6;fill-opacity:1;"><g transform="translate(220.052902, 99.986112)"><path style="stroke:none" d="M 37.828125 -23.578125 C 38.460938 -24.222656 38.75 -24.0625 38.6875 -23.09375 C 38.625 -22.132812 38.175781 -20.835938 37.34375 -19.203125 C 36.507812 -17.566406 35.195312 -15.945312 33.40625 -14.34375 C 28.207031 -9.71875 23.890625 -6.070312 20.453125 -3.40625 C 17.015625 -0.75 14.171875 1.101562 11.921875 2.15625 C 9.679688 3.21875 7.726562 3.71875 6.0625 3.65625 C 4.332031 3.59375 2.875 2.742188 1.6875 1.109375 C 0.5 -0.523438 -0.0625 -2.242188 0 -4.046875 C 0.0625 -5.898438 0.65625 -8.015625 1.78125 -10.390625 C 2.90625 -12.765625 4.363281 -15.21875 6.15625 -17.75 C 7.957031 -20.289062 9.960938 -22.75 12.171875 -25.125 C 14.390625 -27.5 16.617188 -29.628906 18.859375 -31.515625 C 21.109375 -33.410156 23.210938 -34.921875 25.171875 -36.046875 C 27.128906 -37.171875 28.78125 -37.703125 30.125 -37.640625 C 31.40625 -37.566406 32.578125 -37.050781 33.640625 -36.09375 C 34.703125 -35.132812 35.195312 -33.945312 35.125 -32.53125 C 35.0625 -31.050781 34.195312 -29.378906 32.53125 -27.515625 C 30.863281 -25.660156 28.695312 -23.769531 26.03125 -21.84375 C 23.375 -19.925781 20.472656 -18.097656 17.328125 -16.359375 C 14.179688 -14.628906 11.066406 -13.15625 7.984375 -11.9375 C 6.640625 -9.75 5.691406 -7.773438 5.140625 -6.015625 C 4.597656 -4.253906 4.679688 -2.957031 5.390625 -2.125 C 6.222656 -1.15625 7.519531 -0.941406 9.28125 -1.484375 C 11.050781 -2.035156 13.125 -3.097656 15.5 -4.671875 C 17.875 -6.242188 20.375 -8.117188 23 -10.296875 C 25.632812 -12.484375 28.234375 -14.742188 30.796875 -17.078125 C 33.367188 -19.421875 35.710938 -21.585938 37.828125 -23.578125 Z M 28.390625 -31.28125 C 27.753906 -31.925781 26.582031 -31.71875 24.875 -30.65625 C 23.175781 -29.59375 21.269531 -28.019531 19.15625 -25.9375 C 17.039062 -23.851562 14.953125 -21.53125 12.890625 -18.96875 C 14.753906 -19.925781 16.679688 -21.015625 18.671875 -22.234375 C 20.660156 -23.453125 22.488281 -24.65625 24.15625 -25.84375 C 25.820312 -27.03125 27.070312 -28.101562 27.90625 -29.0625 C 28.738281 -30.03125 28.898438 -30.769531 28.390625 -31.28125 Z M 28.390625 -31.28125 "/></g></g><g style="fill:#3b82f6;fill-opacity:1;"><g transform="translate(247.001814, 99.986112)"><path style="stroke:none" d="M 1.921875 4.140625 C 0.898438 4.203125 0.0351562 3.75 -0.671875 2.78125 C -1.378906 1.820312 -1.765625 0.832031 -1.828125 -0.1875 C -1.890625 -1.34375 -1.1875 -3.363281 0.28125 -6.25 C 1.757812 -9.144531 3.796875 -12.628906 6.390625 -16.703125 C 8.992188 -20.773438 11.945312 -25.1875 15.25 -29.9375 C 18.5625 -34.6875 22.03125 -39.484375 25.65625 -44.328125 C 29.28125 -49.171875 32.851562 -53.820312 36.375 -58.28125 C 39.90625 -62.738281 43.210938 -66.734375 46.296875 -70.265625 C 49.378906 -73.796875 52.039062 -76.601562 54.28125 -78.6875 C 56.53125 -80.769531 58.101562 -81.84375 59 -81.90625 C 60.09375 -81.96875 60.941406 -81.660156 61.546875 -80.984375 C 62.160156 -80.316406 62.5 -79.566406 62.5625 -78.734375 C 62.625 -77.703125 61.914062 -76.046875 60.4375 -73.765625 C 58.96875 -71.492188 56.992188 -68.847656 54.515625 -65.828125 C 52.046875 -62.816406 49.320312 -59.675781 46.34375 -56.40625 C 43.363281 -53.132812 40.378906 -49.941406 37.390625 -46.828125 C 34.410156 -43.710938 31.648438 -40.90625 29.109375 -38.40625 C 26.578125 -35.90625 24.539062 -33.976562 23 -32.625 C 21.976562 -31.539062 20.628906 -29.859375 18.953125 -27.578125 C 17.285156 -25.296875 15.550781 -22.773438 13.75 -20.015625 C 11.957031 -17.253906 10.273438 -14.59375 8.703125 -12.03125 C 7.140625 -9.46875 5.9375 -7.316406 5.09375 -5.578125 C 4.257812 -3.847656 4.003906 -2.851562 4.328125 -2.59375 C 4.972656 -2.144531 6.882812 -3.171875 10.0625 -5.671875 C 13.238281 -8.179688 18.160156 -12.453125 24.828125 -18.484375 C 26.046875 -19.566406 26.539062 -19.5 26.3125 -18.28125 C 26.09375 -17.0625 24.671875 -15.039062 22.046875 -12.21875 C 21.335938 -11.445312 20.320312 -10.40625 19 -9.09375 C 17.6875 -7.78125 16.226562 -6.382812 14.625 -4.90625 C 13.019531 -3.425781 11.398438 -2 9.765625 -0.625 C 8.128906 0.75 6.617188 1.867188 5.234375 2.734375 C 3.859375 3.609375 2.753906 4.078125 1.921875 4.140625 Z M 1.921875 4.140625 "/></g></g><g style="fill:#3b82f6;fill-opacity:1;"><g transform="translate(271.929517, 99.986112)"><path style="stroke:none" d=""/></g></g><g style="fill:#3b82f6;fill-opacity:1;"><g transform="translate(295.991038, 99.986112)"><path style="stroke:none" d="M 127.8125 17.03125 C 128.269531 17.09375 128.414062 17.539062 128.25 18.375 C 128.09375 19.21875 127.945312 19.925781 127.8125 20.5 C 127.6875 20.882812 127.625 21.238281 127.625 21.5625 C 127.625 21.882812 127.429688 22.109375 127.046875 22.234375 C 126.921875 22.234375 126.070312 22.296875 124.5 22.421875 C 122.925781 22.554688 120.921875 22.734375 118.484375 22.953125 C 116.046875 23.179688 113.414062 23.40625 110.59375 23.625 C 107.769531 23.851562 104.992188 24.078125 102.265625 24.296875 C 99.535156 24.523438 97.144531 24.734375 95.09375 24.921875 C 93.039062 25.117188 91.566406 25.25 90.671875 25.3125 C 88.929688 25.4375 88.269531 25.257812 88.6875 24.78125 C 89.101562 24.300781 90.273438 23.722656 92.203125 23.046875 C 94.128906 22.378906 96.410156 21.820312 99.046875 21.375 L 107.609375 19.921875 C 101.578125 19.734375 95.0625 19.601562 88.0625 19.53125 C 81.070312 19.46875 73.9375 19.484375 66.65625 19.578125 C 59.375 19.679688 52.203125 19.875 45.140625 20.15625 C 38.078125 20.445312 31.4375 20.851562 25.21875 21.375 C 24.769531 22.207031 24.367188 23.117188 24.015625 24.109375 C 23.660156 25.109375 23.320312 25.957031 23 26.65625 C 22.488281 27.8125 21.71875 28.4375 20.6875 28.53125 C 19.664062 28.632812 18.832031 28.316406 18.1875 27.578125 C 17.550781 26.835938 17.550781 25.890625 18.1875 24.734375 L 19.828125 21.84375 C 17.390625 22.101562 15.046875 22.359375 12.796875 22.609375 C 10.554688 22.867188 8.472656 23.160156 6.546875 23.484375 C 5.578125 23.609375 4.867188 23.253906 4.421875 22.421875 C 3.972656 21.585938 3.894531 20.707031 4.1875 19.78125 C 4.476562 18.851562 5.203125 18.320312 6.359375 18.1875 C 7.578125 18 9.128906 17.835938 11.015625 17.703125 C 12.910156 17.578125 14.945312 17.421875 17.125 17.234375 C 18.03125 17.097656 18.929688 17.015625 19.828125 16.984375 C 20.722656 16.953125 21.65625 16.90625 22.625 16.84375 C 28.269531 7.03125 34.070312 -2.347656 40.03125 -11.296875 C 46 -20.253906 52.097656 -28.875 58.328125 -37.15625 C 60.890625 -40.550781 63.660156 -44.15625 66.640625 -47.96875 C 69.628906 -51.789062 72.664062 -55.625 75.75 -59.46875 C 78.832031 -63.320312 81.785156 -66.96875 84.609375 -70.40625 C 87.429688 -73.84375 89.976562 -76.875 92.25 -79.5 C 94.53125 -82.132812 96.3125 -84.125 97.59375 -85.46875 C 98.175781 -86.050781 98.882812 -86.210938 99.71875 -85.953125 C 100.550781 -85.691406 101.351562 -85.222656 102.125 -84.546875 C 102.894531 -83.878906 103.390625 -83.253906 103.609375 -82.671875 C 103.835938 -82.097656 103.597656 -81.8125 102.890625 -81.8125 C 102.117188 -81.8125 100.847656 -81.007812 99.078125 -79.40625 C 97.316406 -77.800781 95.25 -75.648438 92.875 -72.953125 C 90.5 -70.265625 87.945312 -67.25 85.21875 -63.90625 C 82.5 -60.570312 79.742188 -57.125 76.953125 -53.5625 C 74.160156 -50 71.492188 -46.550781 68.953125 -43.21875 C 66.421875 -39.882812 64.160156 -36.898438 62.171875 -34.265625 C 56.523438 -26.816406 50.878906 -18.9375 45.234375 -10.625 C 39.585938 -2.320312 33.847656 6.703125 28.015625 16.453125 C 33.273438 16.140625 38.96875 15.882812 45.09375 15.6875 C 51.21875 15.5 57.488281 15.367188 63.90625 15.296875 C 70.320312 15.234375 76.675781 15.203125 82.96875 15.203125 C 89.257812 15.203125 95.242188 15.265625 100.921875 15.390625 C 106.597656 15.523438 111.742188 15.734375 116.359375 16.015625 C 120.984375 16.304688 124.800781 16.644531 127.8125 17.03125 Z M 127.8125 17.03125 "/></g></g><g style="fill:#3b82f6;fill-opacity:1;"><g transform="translate(359.60968, 99.986112)"><path style="stroke:none" d="M 46.96875 -31.28125 C 47.925781 -31.726562 48.273438 -31.566406 48.015625 -30.796875 C 47.765625 -30.023438 46.613281 -29.03125 44.5625 -27.8125 C 42.507812 -26.65625 40.25 -25.785156 37.78125 -25.203125 C 35.3125 -24.628906 33.015625 -24.378906 30.890625 -24.453125 C 30.378906 -24.453125 29.882812 -24.5 29.40625 -24.59375 C 28.925781 -24.6875 28.425781 -24.765625 27.90625 -24.828125 C 27.070312 -23.359375 25.753906 -21.382812 23.953125 -18.90625 C 22.160156 -16.4375 20.09375 -13.804688 17.75 -11.015625 C 15.414062 -8.222656 13.046875 -5.59375 10.640625 -3.125 C 8.234375 -0.65625 5.984375 1.328125 3.890625 2.828125 C 1.804688 4.335938 0.125 5.0625 -1.15625 5 C -1.863281 4.9375 -2.742188 4.488281 -3.796875 3.65625 C -4.859375 2.820312 -5.359375 1.601562 -5.296875 0 C -5.296875 -0.644531 -4.796875 -1.832031 -3.796875 -3.5625 C -2.804688 -5.289062 -1.492188 -7.375 0.140625 -9.8125 C 1.773438 -12.25 3.617188 -14.832031 5.671875 -17.5625 C 7.734375 -20.289062 9.835938 -22.984375 11.984375 -25.640625 C 14.128906 -28.304688 16.210938 -30.710938 18.234375 -32.859375 C 20.253906 -35.015625 22.066406 -36.75 23.671875 -38.0625 C 25.273438 -39.382812 26.492188 -40.046875 27.328125 -40.046875 C 28.296875 -40.046875 29.097656 -39.738281 29.734375 -39.125 C 30.378906 -38.519531 30.765625 -37.910156 30.890625 -37.296875 C 31.023438 -36.679688 30.769531 -36.375 30.125 -36.375 C 29.675781 -36.375 29.191406 -36.257812 28.671875 -36.03125 C 28.160156 -35.8125 27.617188 -35.507812 27.046875 -35.125 C 27.941406 -34.550781 28.535156 -33.6875 28.828125 -32.53125 C 29.117188 -31.375 29.195312 -30.125 29.0625 -28.78125 C 29.507812 -28.71875 29.972656 -28.632812 30.453125 -28.53125 C 30.941406 -28.4375 31.441406 -28.390625 31.953125 -28.390625 C 33.296875 -28.390625 34.960938 -28.535156 36.953125 -28.828125 C 38.941406 -29.117188 40.867188 -29.488281 42.734375 -29.9375 C 44.597656 -30.382812 46.007812 -30.832031 46.96875 -31.28125 Z M 1.921875 -2.796875 C 2.242188 -2.472656 3 -2.726562 4.1875 -3.5625 C 5.375 -4.394531 6.769531 -5.628906 8.375 -7.265625 C 9.976562 -8.898438 11.644531 -10.710938 13.375 -12.703125 C 15.113281 -14.691406 16.734375 -16.664062 18.234375 -18.625 C 19.742188 -20.582031 20.976562 -22.332031 21.9375 -23.875 C 22.90625 -25.414062 23.390625 -26.535156 23.390625 -27.234375 L 23.390625 -27.8125 C 22.804688 -28.519531 22.289062 -29.289062 21.84375 -30.125 C 20.882812 -28.96875 19.535156 -27.363281 17.796875 -25.3125 C 16.066406 -23.257812 14.222656 -21.015625 12.265625 -18.578125 C 10.316406 -16.140625 8.488281 -13.78125 6.78125 -11.5 C 5.082031 -9.21875 3.765625 -7.273438 2.828125 -5.671875 C 1.898438 -4.066406 1.597656 -3.109375 1.921875 -2.796875 Z M 1.921875 -2.796875 "/></g></g><g style="fill:#3b82f6;fill-opacity:1;"><g transform="translate(387.617284, 99.986112)"><path style="stroke:none" d="M -1.921875 5.96875 C -2.628906 5.96875 -3.238281 5.566406 -3.75 4.765625 C -4.269531 3.960938 -4.609375 3.046875 -4.765625 2.015625 C -4.921875 0.992188 -4.804688 0.160156 -4.421875 -0.484375 C -2.953125 -2.984375 -1.222656 -5.769531 0.765625 -8.84375 C 2.753906 -11.925781 4.90625 -15.101562 7.21875 -18.375 C 9.53125 -21.65625 11.90625 -24.882812 14.34375 -28.0625 C 16.78125 -31.238281 19.125 -34.140625 21.375 -36.765625 C 21.882812 -37.410156 22.488281 -37.539062 23.1875 -37.15625 C 23.894531 -36.769531 24.519531 -36.175781 25.0625 -35.375 C 25.613281 -34.570312 25.953125 -33.832031 26.078125 -33.15625 C 26.210938 -32.476562 25.957031 -32.140625 25.3125 -32.140625 C 24.925781 -32.140625 24.171875 -31.609375 23.046875 -30.546875 C 21.929688 -29.492188 20.632812 -28.132812 19.15625 -26.46875 C 17.675781 -24.800781 16.164062 -23.003906 14.625 -21.078125 C 13.851562 -20.117188 12.988281 -18.976562 12.03125 -17.65625 C 11.070312 -16.34375 10.171875 -15.09375 9.328125 -13.90625 C 8.492188 -12.71875 7.882812 -11.816406 7.5 -11.203125 C 7.125 -10.597656 7.160156 -10.488281 7.609375 -10.875 C 11.585938 -14.46875 15.484375 -17.851562 19.296875 -21.03125 C 23.117188 -24.207031 26.613281 -27 29.78125 -29.40625 C 32.957031 -31.8125 35.648438 -33.703125 37.859375 -35.078125 C 40.078125 -36.460938 41.609375 -37.15625 42.453125 -37.15625 C 43.347656 -37.15625 43.988281 -36.738281 44.375 -35.90625 C 45.207031 -35.382812 45.625 -34.804688 45.625 -34.171875 C 45.625 -33.785156 45.109375 -32.851562 44.078125 -31.375 C 43.054688 -29.894531 41.773438 -28.097656 40.234375 -25.984375 C 38.691406 -23.867188 37.070312 -21.65625 35.375 -19.34375 C 33.675781 -17.03125 32.132812 -14.816406 30.75 -12.703125 C 29.375 -10.585938 28.363281 -8.742188 27.71875 -7.171875 C 27.070312 -5.597656 27.007812 -4.523438 27.53125 -3.953125 C 27.914062 -3.566406 28.71875 -3.675781 29.9375 -4.28125 C 31.15625 -4.894531 32.613281 -5.859375 34.3125 -7.171875 C 36.007812 -8.484375 37.789062 -9.941406 39.65625 -11.546875 C 41.519531 -13.148438 43.332031 -14.769531 45.09375 -16.40625 C 46.851562 -18.039062 48.390625 -19.484375 49.703125 -20.734375 C 51.023438 -21.992188 51.972656 -22.910156 52.546875 -23.484375 C 53.128906 -24.054688 53.53125 -23.988281 53.75 -23.28125 C 53.976562 -22.582031 53.945312 -21.671875 53.65625 -20.546875 C 53.363281 -19.421875 52.769531 -18.441406 51.875 -17.609375 C 51.488281 -17.285156 50.601562 -16.414062 49.21875 -15 C 47.84375 -13.59375 46.160156 -11.941406 44.171875 -10.046875 C 42.179688 -8.160156 40.097656 -6.316406 37.921875 -4.515625 C 35.742188 -2.722656 33.707031 -1.21875 31.8125 0 C 29.914062 1.21875 28.359375 1.828125 27.140625 1.828125 C 25.597656 1.828125 24.3125 1.1875 23.28125 -0.09375 C 22.257812 -1.375 21.75 -2.5625 21.75 -3.65625 C 21.75 -5.070312 22.242188 -6.738281 23.234375 -8.65625 C 24.234375 -10.582031 25.4375 -12.585938 26.84375 -14.671875 C 28.257812 -16.765625 29.65625 -18.707031 31.03125 -20.5 C 32.414062 -22.300781 33.523438 -23.8125 34.359375 -25.03125 C 35.191406 -26.25 35.484375 -26.953125 35.234375 -27.140625 C 35.035156 -27.335938 34.296875 -27 33.015625 -26.125 C 31.734375 -25.257812 30.128906 -24.085938 28.203125 -22.609375 C 26.273438 -21.140625 24.203125 -19.488281 21.984375 -17.65625 C 19.773438 -15.832031 17.59375 -13.972656 15.4375 -12.078125 C 13.289062 -10.179688 11.382812 -8.414062 9.71875 -6.78125 C 8.050781 -5.144531 6.769531 -3.816406 5.875 -2.796875 C 3.6875 -0.222656 2.015625 1.878906 0.859375 3.515625 C -0.285156 5.148438 -1.210938 5.96875 -1.921875 5.96875 Z M -1.921875 5.96875 "/></g></g><g style="fill:#3b82f6;fill-opacity:1;"><g transform="translate(429.484302, 99.986112)"><path style="stroke:none" d="M 82.390625 -76.03125 C 82.898438 -76.550781 83.472656 -76.617188 84.109375 -76.234375 C 84.753906 -75.847656 85.300781 -75.285156 85.75 -74.546875 C 86.207031 -73.804688 86.453125 -73.113281 86.484375 -72.46875 C 86.515625 -71.832031 86.207031 -71.515625 85.5625 -71.515625 C 85.050781 -71.515625 84.054688 -70.726562 82.578125 -69.15625 C 81.109375 -67.582031 79.234375 -65.414062 76.953125 -62.65625 C 74.671875 -59.894531 72.132812 -56.734375 69.34375 -53.171875 C 66.550781 -49.617188 63.628906 -45.816406 60.578125 -41.765625 C 57.535156 -37.722656 54.472656 -33.617188 51.390625 -29.453125 C 47.867188 -24.765625 44.375 -20.0625 40.90625 -15.34375 C 37.4375 -10.632812 34.191406 -6.128906 31.171875 -1.828125 C 28.160156 2.472656 25.515625 6.382812 23.234375 9.90625 C 20.960938 13.4375 19.25 16.421875 18.09375 18.859375 C 16.9375 21.296875 16.519531 23 16.84375 23.96875 C 16.96875 24.289062 16.628906 24.414062 15.828125 24.34375 C 15.023438 24.28125 14.207031 23.957031 13.375 23.375 C 12.539062 22.800781 12.125 22.003906 12.125 20.984375 C 12.125 19.640625 13.820312 16.222656 17.21875 10.734375 C 20.625 5.242188 25.613281 -2.035156 32.1875 -11.109375 C 38.769531 -20.191406 46.742188 -30.734375 56.109375 -42.734375 C 47.703125 -34.835938 40.5 -28.113281 34.5 -22.5625 C 28.5 -17.019531 23.492188 -12.53125 19.484375 -9.09375 C 15.472656 -5.664062 12.265625 -3.164062 9.859375 -1.59375 C 7.453125 -0.0195312 5.609375 0.765625 4.328125 0.765625 C 3.234375 0.765625 2.15625 0.191406 1.09375 -0.953125 C 0.0390625 -2.109375 -0.484375 -3.554688 -0.484375 -5.296875 C -0.484375 -6.703125 0.0625 -8.429688 1.15625 -10.484375 C 2.25 -12.546875 3.691406 -14.742188 5.484375 -17.078125 C 7.285156 -19.421875 9.289062 -21.734375 11.5 -24.015625 C 13.71875 -26.296875 15.929688 -28.363281 18.140625 -30.21875 C 20.359375 -32.082031 22.410156 -33.570312 24.296875 -34.6875 C 26.191406 -35.8125 27.75 -36.375 28.96875 -36.375 C 31.019531 -36.375 32.640625 -35.6875 33.828125 -34.3125 C 35.015625 -32.9375 35.769531 -31.601562 36.09375 -30.3125 C 39.488281 -33.457031 43.160156 -36.921875 47.109375 -40.703125 C 51.054688 -44.492188 55.34375 -48.632812 59.96875 -53.125 C 63.363281 -56.46875 66.921875 -60.109375 70.640625 -64.046875 C 74.367188 -67.992188 78.285156 -71.988281 82.390625 -76.03125 Z M 4.625 -4.90625 C 5.132812 -4.195312 7.601562 -5.5625 12.03125 -9 C 16.457031 -12.4375 23.257812 -18.421875 32.4375 -26.953125 C 32.113281 -28.171875 31.675781 -29.164062 31.125 -29.9375 C 30.582031 -30.707031 29.800781 -31.09375 28.78125 -31.09375 C 27.625 -31.09375 26.191406 -30.515625 24.484375 -29.359375 C 22.785156 -28.203125 20.988281 -26.691406 19.09375 -24.828125 C 17.207031 -22.972656 15.347656 -20.96875 13.515625 -18.8125 C 11.691406 -16.664062 10.054688 -14.613281 8.609375 -12.65625 C 7.171875 -10.695312 6.082031 -9.007812 5.34375 -7.59375 C 4.601562 -6.1875 4.363281 -5.289062 4.625 -4.90625 Z M 4.625 -4.90625 "/></g></g><g style="fill:#3b82f6;fill-opacity:1;"><g transform="translate(479.05104, 99.986112)"><path style="stroke:none" d="M 46.96875 -31.28125 C 47.925781 -31.726562 48.273438 -31.566406 48.015625 -30.796875 C 47.765625 -30.023438 46.613281 -29.03125 44.5625 -27.8125 C 42.507812 -26.65625 40.25 -25.785156 37.78125 -25.203125 C 35.3125 -24.628906 33.015625 -24.378906 30.890625 -24.453125 C 30.378906 -24.453125 29.882812 -24.5 29.40625 -24.59375 C 28.925781 -24.6875 28.425781 -24.765625 27.90625 -24.828125 C 27.070312 -23.359375 25.753906 -21.382812 23.953125 -18.90625 C 22.160156 -16.4375 20.09375 -13.804688 17.75 -11.015625 C 15.414062 -8.222656 13.046875 -5.59375 10.640625 -3.125 C 8.234375 -0.65625 5.984375 1.328125 3.890625 2.828125 C 1.804688 4.335938 0.125 5.0625 -1.15625 5 C -1.863281 4.9375 -2.742188 4.488281 -3.796875 3.65625 C -4.859375 2.820312 -5.359375 1.601562 -5.296875 0 C -5.296875 -0.644531 -4.796875 -1.832031 -3.796875 -3.5625 C -2.804688 -5.289062 -1.492188 -7.375 0.140625 -9.8125 C 1.773438 -12.25 3.617188 -14.832031 5.671875 -17.5625 C 7.734375 -20.289062 9.835938 -22.984375 11.984375 -25.640625 C 14.128906 -28.304688 16.210938 -30.710938 18.234375 -32.859375 C 20.253906 -35.015625 22.066406 -36.75 23.671875 -38.0625 C 25.273438 -39.382812 26.492188 -40.046875 27.328125 -40.046875 C 28.296875 -40.046875 29.097656 -39.738281 29.734375 -39.125 C 30.378906 -38.519531 30.765625 -37.910156 30.890625 -37.296875 C 31.023438 -36.679688 30.769531 -36.375 30.125 -36.375 C 29.675781 -36.375 29.191406 -36.257812 28.671875 -36.03125 C 28.160156 -35.8125 27.617188 -35.507812 27.046875 -35.125 C 27.941406 -34.550781 28.535156 -33.6875 28.828125 -32.53125 C 29.117188 -31.375 29.195312 -30.125 29.0625 -28.78125 C 29.507812 -28.71875 29.972656 -28.632812 30.453125 -28.53125 C 30.941406 -28.4375 31.441406 -28.390625 31.953125 -28.390625 C 33.296875 -28.390625 34.960938 -28.535156 36.953125 -28.828125 C 38.941406 -29.117188 40.867188 -29.488281 42.734375 -29.9375 C 44.597656 -30.382812 46.007812 -30.832031 46.96875 -31.28125 Z M 1.921875 -2.796875 C 2.242188 -2.472656 3 -2.726562 4.1875 -3.5625 C 5.375 -4.394531 6.769531 -5.628906 8.375 -7.265625 C 9.976562 -8.898438 11.644531 -10.710938 13.375 -12.703125 C 15.113281 -14.691406 16.734375 -16.664062 18.234375 -18.625 C 19.742188 -20.582031 20.976562 -22.332031 21.9375 -23.875 C 22.90625 -25.414062 23.390625 -26.535156 23.390625 -27.234375 L 23.390625 -27.8125 C 22.804688 -28.519531 22.289062 -29.289062 21.84375 -30.125 C 20.882812 -28.96875 19.535156 -27.363281 17.796875 -25.3125 C 16.066406 -23.257812 14.222656 -21.015625 12.265625 -18.578125 C 10.316406 -16.140625 8.488281 -13.78125 6.78125 -11.5 C 5.082031 -9.21875 3.765625 -7.273438 2.828125 -5.671875 C 1.898438 -4.066406 1.597656 -3.109375 1.921875 -2.796875 Z M 1.921875 -2.796875 "/></g></g><g style="fill:#3b82f6;fill-opacity:1;"><g transform="translate(507.058668, 99.986112)"><path style="stroke:none" d="M 52.171875 -48.890625 C 50.503906 -48.890625 49.1875 -49.382812 48.21875 -50.375 C 47.257812 -51.375 46.519531 -52.453125 46 -53.609375 C 45.625 -54.441406 45.367188 -55.210938 45.234375 -55.921875 C 45.109375 -56.628906 44.789062 -57.078125 44.28125 -57.265625 C 43.894531 -57.398438 43.1875 -57.207031 42.15625 -56.6875 C 41.132812 -56.175781 40.007812 -55.488281 38.78125 -54.625 C 37.5625 -53.757812 36.4375 -52.890625 35.40625 -52.015625 C 34.382812 -51.148438 33.679688 -50.429688 33.296875 -49.859375 C 32.847656 -49.210938 32.253906 -48.9375 31.515625 -49.03125 C 30.785156 -49.132812 30.113281 -49.472656 29.5 -50.046875 C 28.894531 -50.628906 28.507812 -51.253906 28.34375 -51.921875 C 28.1875 -52.597656 28.425781 -53.160156 29.0625 -53.609375 C 29.832031 -54.054688 31.035156 -54.789062 32.671875 -55.8125 C 34.304688 -56.84375 36.039062 -57.9375 37.875 -59.09375 C 39.707031 -60.25 41.375 -61.226562 42.875 -62.03125 C 44.382812 -62.832031 45.363281 -63.234375 45.8125 -63.234375 C 46.78125 -63.234375 47.628906 -62.894531 48.359375 -62.21875 C 49.097656 -61.550781 49.46875 -60.925781 49.46875 -60.34375 C 49.46875 -59.957031 49.484375 -59.347656 49.515625 -58.515625 C 49.546875 -57.679688 49.691406 -56.832031 49.953125 -55.96875 C 50.210938 -55.101562 50.597656 -54.476562 51.109375 -54.09375 C 51.492188 -53.832031 52.226562 -53.734375 53.3125 -53.796875 C 54.40625 -53.867188 55.640625 -54.046875 57.015625 -54.328125 C 58.398438 -54.617188 59.71875 -54.957031 60.96875 -55.34375 C 62.21875 -55.726562 63.226562 -56.082031 64 -56.40625 C 64.644531 -56.65625 65.128906 -56.507812 65.453125 -55.96875 C 65.773438 -55.425781 65.953125 -54.816406 65.984375 -54.140625 C 66.015625 -53.460938 65.867188 -53.0625 65.546875 -52.9375 C 65.347656 -52.875 64.734375 -52.617188 63.703125 -52.171875 C 62.679688 -51.722656 61.476562 -51.253906 60.09375 -50.765625 C 58.71875 -50.285156 57.320312 -49.851562 55.90625 -49.46875 C 54.5 -49.082031 53.253906 -48.890625 52.171875 -48.890625 Z M -1.921875 5.96875 C -2.628906 5.96875 -3.238281 5.566406 -3.75 4.765625 C -4.269531 3.960938 -4.609375 3.046875 -4.765625 2.015625 C -4.921875 0.992188 -4.804688 0.160156 -4.421875 -0.484375 C -2.953125 -2.984375 -1.222656 -5.769531 0.765625 -8.84375 C 2.753906 -11.925781 4.90625 -15.101562 7.21875 -18.375 C 9.53125 -21.65625 11.90625 -24.882812 14.34375 -28.0625 C 16.78125 -31.238281 19.125 -34.140625 21.375 -36.765625 C 21.882812 -37.410156 22.488281 -37.539062 23.1875 -37.15625 C 23.894531 -36.769531 24.519531 -36.175781 25.0625 -35.375 C 25.613281 -34.570312 25.953125 -33.832031 26.078125 -33.15625 C 26.210938 -32.476562 25.957031 -32.140625 25.3125 -32.140625 C 24.925781 -32.140625 24.171875 -31.609375 23.046875 -30.546875 C 21.929688 -29.492188 20.632812 -28.132812 19.15625 -26.46875 C 17.675781 -24.800781 16.164062 -23.003906 14.625 -21.078125 C 13.851562 -20.117188 12.988281 -18.976562 12.03125 -17.65625 C 11.070312 -16.34375 10.171875 -15.09375 9.328125 -13.90625 C 8.492188 -12.71875 7.882812 -11.816406 7.5 -11.203125 C 7.125 -10.597656 7.160156 -10.488281 7.609375 -10.875 C 11.585938 -14.46875 15.484375 -17.851562 19.296875 -21.03125 C 23.117188 -24.207031 26.613281 -27 29.78125 -29.40625 C 32.957031 -31.8125 35.648438 -33.703125 37.859375 -35.078125 C 40.078125 -36.460938 41.609375 -37.15625 42.453125 -37.15625 C 43.347656 -37.15625 43.988281 -36.738281 44.375 -35.90625 C 45.207031 -35.382812 45.625 -34.804688 45.625 -34.171875 C 45.625 -33.785156 45.109375 -32.851562 44.078125 -31.375 C 43.054688 -29.894531 41.773438 -28.097656 40.234375 -25.984375 C 38.691406 -23.867188 37.070312 -21.65625 35.375 -19.34375 C 33.675781 -17.03125 32.132812 -14.816406 30.75 -12.703125 C 29.375 -10.585938 28.363281 -8.742188 27.71875 -7.171875 C 27.070312 -5.597656 27.007812 -4.523438 27.53125 -3.953125 C 27.914062 -3.566406 28.71875 -3.675781 29.9375 -4.28125 C 31.15625 -4.894531 32.613281 -5.859375 34.3125 -7.171875 C 36.007812 -8.484375 37.789062 -9.941406 39.65625 -11.546875 C 41.519531 -13.148438 43.332031 -14.769531 45.09375 -16.40625 C 46.851562 -18.039062 48.390625 -19.484375 49.703125 -20.734375 C 51.023438 -21.992188 51.972656 -22.910156 52.546875 -23.484375 C 53.128906 -24.054688 53.53125 -23.988281 53.75 -23.28125 C 53.976562 -22.582031 53.945312 -21.671875 53.65625 -20.546875 C 53.363281 -19.421875 52.769531 -18.441406 51.875 -17.609375 C 51.488281 -17.285156 50.601562 -16.414062 49.21875 -15 C 47.84375 -13.59375 46.160156 -11.941406 44.171875 -10.046875 C 42.179688 -8.160156 40.097656 -6.316406 37.921875 -4.515625 C 35.742188 -2.722656 33.707031 -1.21875 31.8125 0 C 29.914062 1.21875 28.359375 1.828125 27.140625 1.828125 C 25.597656 1.828125 24.3125 1.1875 23.28125 -0.09375 C 22.257812 -1.375 21.75 -2.5625 21.75 -3.65625 C 21.75 -5.070312 22.242188 -6.738281 23.234375 -8.65625 C 24.234375 -10.582031 25.4375 -12.585938 26.84375 -14.671875 C 28.257812 -16.765625 29.65625 -18.707031 31.03125 -20.5 C 32.414062 -22.300781 33.523438 -23.8125 34.359375 -25.03125 C 35.191406 -26.25 35.484375 -26.953125 35.234375 -27.140625 C 35.035156 -27.335938 34.296875 -27 33.015625 -26.125 C 31.734375 -25.257812 30.128906 -24.085938 28.203125 -22.609375 C 26.273438 -21.140625 24.203125 -19.488281 21.984375 -17.65625 C 19.773438 -15.832031 17.59375 -13.972656 15.4375 -12.078125 C 13.289062 -10.179688 11.382812 -8.414062 9.71875 -6.78125 C 8.050781 -5.144531 6.769531 -3.816406 5.875 -2.796875 C 3.6875 -0.222656 2.015625 1.878906 0.859375 3.515625 C -0.285156 5.148438 -1.210938 5.96875 -1.921875 5.96875 Z M -1.921875 5.96875 "/></g></g><g style="fill:#3b82f6;fill-opacity:1;"><g transform="translate(548.925686, 99.986112)"><path style="stroke:none" d="M 46.96875 -31.28125 C 47.925781 -31.726562 48.273438 -31.566406 48.015625 -30.796875 C 47.765625 -30.023438 46.613281 -29.03125 44.5625 -27.8125 C 42.507812 -26.65625 40.25 -25.785156 37.78125 -25.203125 C 35.3125 -24.628906 33.015625 -24.378906 30.890625 -24.453125 C 30.378906 -24.453125 29.882812 -24.5 29.40625 -24.59375 C 28.925781 -24.6875 28.425781 -24.765625 27.90625 -24.828125 C 27.070312 -23.359375 25.753906 -21.382812 23.953125 -18.90625 C 22.160156 -16.4375 20.09375 -13.804688 17.75 -11.015625 C 15.414062 -8.222656 13.046875 -5.59375 10.640625 -3.125 C 8.234375 -0.65625 5.984375 1.328125 3.890625 2.828125 C 1.804688 4.335938 0.125 5.0625 -1.15625 5 C -1.863281 4.9375 -2.742188 4.488281 -3.796875 3.65625 C -4.859375 2.820312 -5.359375 1.601562 -5.296875 0 C -5.296875 -0.644531 -4.796875 -1.832031 -3.796875 -3.5625 C -2.804688 -5.289062 -1.492188 -7.375 0.140625 -9.8125 C 1.773438 -12.25 3.617188 -14.832031 5.671875 -17.5625 C 7.734375 -20.289062 9.835938 -22.984375 11.984375 -25.640625 C 14.128906 -28.304688 16.210938 -30.710938 18.234375 -32.859375 C 20.253906 -35.015625 22.066406 -36.75 23.671875 -38.0625 C 25.273438 -39.382812 26.492188 -40.046875 27.328125 -40.046875 C 28.296875 -40.046875 29.097656 -39.738281 29.734375 -39.125 C 30.378906 -38.519531 30.765625 -37.910156 30.890625 -37.296875 C 31.023438 -36.679688 30.769531 -36.375 30.125 -36.375 C 29.675781 -36.375 29.191406 -36.257812 28.671875 -36.03125 C 28.160156 -35.8125 27.617188 -35.507812 27.046875 -35.125 C 27.941406 -34.550781 28.535156 -33.6875 28.828125 -32.53125 C 29.117188 -31.375 29.195312 -30.125 29.0625 -28.78125 C 29.507812 -28.71875 29.972656 -28.632812 30.453125 -28.53125 C 30.941406 -28.4375 31.441406 -28.390625 31.953125 -28.390625 C 33.296875 -28.390625 34.960938 -28.535156 36.953125 -28.828125 C 38.941406 -29.117188 40.867188 -29.488281 42.734375 -29.9375 C 44.597656 -30.382812 46.007812 -30.832031 46.96875 -31.28125 Z M 1.921875 -2.796875 C 2.242188 -2.472656 3 -2.726562 4.1875 -3.5625 C 5.375 -4.394531 6.769531 -5.628906 8.375 -7.265625 C 9.976562 -8.898438 11.644531 -10.710938 13.375 -12.703125 C 15.113281 -14.691406 16.734375 -16.664062 18.234375 -18.625 C 19.742188 -20.582031 20.976562 -22.332031 21.9375 -23.875 C 22.90625 -25.414062 23.390625 -26.535156 23.390625 -27.234375 L 23.390625 -27.8125 C 22.804688 -28.519531 22.289062 -29.289062 21.84375 -30.125 C 20.882812 -28.96875 19.535156 -27.363281 17.796875 -25.3125 C 16.066406 -23.257812 14.222656 -21.015625 12.265625 -18.578125 C 10.316406 -16.140625 8.488281 -13.78125 6.78125 -11.5 C 5.082031 -9.21875 3.765625 -7.273438 2.828125 -5.671875 C 1.898438 -4.066406 1.597656 -3.109375 1.921875 -2.796875 Z M 1.921875 -2.796875 "/></g></g></g></svg>